<?xml version="1.0" encoding="UTF-8" standalone="no"?>
<!DOCTYPE svg PUBLIC "-//W3C//DTD SVG 1.1//EN"
 "http://www.w3.org/Graphics/SVG/1.1/DTD/svg11.dtd">
<!-- Generated by graphviz version 2.43.0 (0)
 -->
<!-- Title: clutchlog.h Pages: 1 -->
<svg width="497pt" height="84pt"
 viewBox="0.00 0.00 496.50 84.00" xmlns="http://www.w3.org/2000/svg" xmlns:xlink="http://www.w3.org/1999/xlink">
<g id="graph0" class="graph" transform="scale(1 1) rotate(0) translate(4 80)">
<title>clutchlog.h</title>
<polygon fill="white" stroke="transparent" points="-4,4 -4,-80 492.5,-80 492.5,4 -4,4"/>
<!-- Node1 -->
<g id="node1" class="node">
<title>Node1</title>
<g id="a_node1"><a xlink:title=" ">
<polygon fill="#bfbfbf" stroke="black" points="208,-56.5 208,-75.5 272,-75.5 272,-56.5 208,-56.5"/>
<text text-anchor="middle" x="240" y="-63.5" font-family="Helvetica,sans-Serif" font-size="10.00">clutchlog.h</text>
</a>
</g>
</g>
<!-- Node2 -->
<g id="node2" class="node">
<title>Node2</title>
<g id="a_node2"><a xlink:href="t-assert_8cpp_source.html" target="_top" xlink:title=" ">
<polygon fill="white" stroke="black" points="0,-0.5 0,-19.5 68,-19.5 68,-0.5 0,-0.5"/>
<text text-anchor="middle" x="34" y="-7.5" font-family="Helvetica,sans-Serif" font-size="10.00">t&#45;assert.cpp</text>
</a>
</g>
</g>
<!-- Node1&#45;&gt;Node2 -->
<g id="edge1" class="edge">
<title>Node1&#45;&gt;Node2</title>
<path fill="none" stroke="midnightblue" d="M197.86,-53.95C159.01,-43.77 102.14,-28.86 66.64,-19.56"/>
<polygon fill="midnightblue" stroke="midnightblue" points="197.25,-57.41 207.81,-56.56 199.03,-50.64 197.25,-57.41"/>
</g>
<!-- Node3 -->
<g id="node3" class="node">
<title>Node3</title>
<g id="a_node3"><a xlink:href="t-color_8cpp_source.html" target="_top" xlink:title=" ">
<polygon fill="white" stroke="black" points="86,-0.5 86,-19.5 148,-19.5 148,-0.5 86,-0.5"/>
<text text-anchor="middle" x="117" y="-7.5" font-family="Helvetica,sans-Serif" font-size="10.00">t&#45;color.cpp</text>
</a>
</g>
</g>
<!-- Node1&#45;&gt;Node3 -->
<g id="edge2" class="edge">
<title>Node1&#45;&gt;Node3</title>
<path fill="none" stroke="midnightblue" d="M211.23,-52.37C188.19,-42.26 156.52,-28.35 136.4,-19.52"/>
<polygon fill="midnightblue" stroke="midnightblue" points="209.95,-55.63 220.51,-56.44 212.76,-49.22 209.95,-55.63"/>
</g>
<!-- Node4 -->
<g id="node4" class="node">
<title>Node4</title>
<g id="a_node4"><a xlink:href="t-demo_8cpp_source.html" target="_top" xlink:title=" ">
<polygon fill="white" stroke="black" points="166.5,-0.5 166.5,-19.5 231.5,-19.5 231.5,-0.5 166.5,-0.5"/>
<text text-anchor="middle" x="199" y="-7.5" font-family="Helvetica,sans-Serif" font-size="10.00">t&#45;demo.cpp</text>
</a>
</g>
</g>
<!-- Node1&#45;&gt;Node4 -->
<g id="edge3" class="edge">
<title>Node1&#45;&gt;Node4</title>
<path fill="none" stroke="midnightblue" d="M226.98,-47.86C219.88,-38.5 211.4,-27.33 205.64,-19.75"/>
<polygon fill="midnightblue" stroke="midnightblue" points="224.39,-50.24 233.23,-56.08 229.97,-46 224.39,-50.24"/>
</g>
<!-- Node5 -->
<g id="node5" class="node">
<title>Node5</title>
<g id="a_node5"><a xlink:href="t-dump_8cpp_source.html" target="_top" xlink:title=" ">
<polygon fill="white" stroke="black" points="249.5,-0.5 249.5,-19.5 314.5,-19.5 314.5,-0.5 249.5,-0.5"/>
<text text-anchor="middle" x="282" y="-7.5" font-family="Helvetica,sans-Serif" font-size="10.00">t&#45;dump.cpp</text>
</a>
</g>
</g>
<!-- Node1&#45;&gt;Node5 -->
<g id="edge4" class="edge">
<title>Node1&#45;&gt;Node5</title>
<path fill="none" stroke="midnightblue" d="M253.11,-48.14C260.43,-38.74 269.24,-27.4 275.19,-19.75"/>
<polygon fill="midnightblue" stroke="midnightblue" points="250.31,-46.04 246.94,-56.08 255.84,-50.34 250.31,-46.04"/>
</g>
<!-- Node6 -->
<g id="node6" class="node">
<title>Node6</title>
<g id="a_node6"><a xlink:href="t-log_8cpp_source.html" target="_top" xlink:title=" ">
<polygon fill="white" stroke="black" points="333,-0.5 333,-19.5 387,-19.5 387,-0.5 333,-0.5"/>
<text text-anchor="middle" x="360" y="-7.5" font-family="Helvetica,sans-Serif" font-size="10.00">t&#45;log.cpp</text>
</a>
</g>
</g>
<!-- Node1&#45;&gt;Node6 -->
<g id="edge5" class="edge">
<title>Node1&#45;&gt;Node6</title>
<path fill="none" stroke="midnightblue" d="M268.37,-52.23C290.82,-42.13 321.54,-28.31 341.07,-19.52"/>
<polygon fill="midnightblue" stroke="midnightblue" points="266.7,-49.15 259.01,-56.44 269.57,-55.53 266.7,-49.15"/>
</g>
<!-- Node7 -->
<g id="node7" class="node">
<title>Node7</title>
<g id="a_node7"><a xlink:href="t-one-line-if_8cpp_source.html" target="_top" xlink:title=" ">
<polygon fill="white" stroke="black" points="405.5,-0.5 405.5,-19.5 488.5,-19.5 488.5,-0.5 405.5,-0.5"/>
<text text-anchor="middle" x="447" y="-7.5" font-family="Helvetica,sans-Serif" font-size="10.00">t&#45;one&#45;line&#45;if.cpp</text>
</a>
</g>
</g>
<!-- Node1&#45;&gt;Node7 -->
<g id="edge6" class="edge">
<title>Node1&#45;&gt;Node7</title>
<path fill="none" stroke="midnightblue" d="M282.35,-53.95C321.39,-43.77 378.53,-28.86 414.2,-19.56"/>
<polygon fill="midnightblue" stroke="midnightblue" points="281.14,-50.65 272.34,-56.56 282.9,-57.42 281.14,-50.65"/>
</g>
</g>
</svg>
