<?xml version="1.0" encoding="UTF-8" standalone="no"?>
<!DOCTYPE svg PUBLIC "-//W3C//DTD SVG 1.1//EN"
 "http://www.w3.org/Graphics/SVG/1.1/DTD/svg11.dtd">
<!-- Generated by graphviz version 2.43.0 (0)
 -->
<!-- Title: clutchlog.h Pages: 1 -->
<svg width="1065pt" height="84pt"
 viewBox="0.00 0.00 1064.50 84.00" xmlns="http://www.w3.org/2000/svg" xmlns:xlink="http://www.w3.org/1999/xlink">
<g id="graph0" class="graph" transform="scale(1 1) rotate(0) translate(4 80)">
<title>clutchlog.h</title>
<polygon fill="white" stroke="transparent" points="-4,4 -4,-80 1060.5,-80 1060.5,4 -4,4"/>
<!-- Node1 -->
<g id="node1" class="node">
<title>Node1</title>
<g id="a_node1"><a xlink:title=" ">
<polygon fill="#bfbfbf" stroke="black" points="500,-56.5 500,-75.5 564,-75.5 564,-56.5 500,-56.5"/>
<text text-anchor="middle" x="532" y="-63.5" font-family="Helvetica,sans-Serif" font-size="10.00">clutchlog.h</text>
</a>
</g>
</g>
<!-- Node2 -->
<g id="node2" class="node">
<title>Node2</title>
<g id="a_node2"><a xlink:href="t-assert_8cpp_source.html" target="_top" xlink:title=" ">
<polygon fill="white" stroke="black" points="0,-0.5 0,-19.5 68,-19.5 68,-0.5 0,-0.5"/>
<text text-anchor="middle" x="34" y="-7.5" font-family="Helvetica,sans-Serif" font-size="10.00">t&#45;assert.cpp</text>
</a>
</g>
</g>
<!-- Node1&#45;&gt;Node2 -->
<g id="edge1" class="edge">
<title>Node1&#45;&gt;Node2</title>
<path fill="none" stroke="midnightblue" d="M489.61,-62.34C408.94,-56.94 227.92,-43.19 77,-20 74.14,-19.56 71.17,-19.05 68.21,-18.51"/>
<polygon fill="midnightblue" stroke="midnightblue" points="489.65,-65.85 499.86,-63.02 490.11,-58.86 489.65,-65.85"/>
</g>
<!-- Node3 -->
<g id="node3" class="node">
<title>Node3</title>
<g id="a_node3"><a xlink:href="t-color_8cpp_source.html" target="_top" xlink:title=" ">
<polygon fill="white" stroke="black" points="86,-0.5 86,-19.5 148,-19.5 148,-0.5 86,-0.5"/>
<text text-anchor="middle" x="117" y="-7.5" font-family="Helvetica,sans-Serif" font-size="10.00">t&#45;color.cpp</text>
</a>
</g>
</g>
<!-- Node1&#45;&gt;Node3 -->
<g id="edge2" class="edge">
<title>Node1&#45;&gt;Node3</title>
<path fill="none" stroke="midnightblue" d="M489.59,-61.33C419.89,-54.98 276.86,-40.62 157,-20 154.19,-19.52 151.29,-18.97 148.38,-18.38"/>
<polygon fill="midnightblue" stroke="midnightblue" points="489.46,-64.83 499.74,-62.25 490.09,-57.86 489.46,-64.83"/>
</g>
<!-- Node4 -->
<g id="node4" class="node">
<title>Node4</title>
<g id="a_node4"><a xlink:href="t-color16_m_8cpp_source.html" target="_top" xlink:title=" ">
<polygon fill="white" stroke="black" points="166.5,-0.5 166.5,-19.5 247.5,-19.5 247.5,-0.5 166.5,-0.5"/>
<text text-anchor="middle" x="207" y="-7.5" font-family="Helvetica,sans-Serif" font-size="10.00">t&#45;color16M.cpp</text>
</a>
</g>
</g>
<!-- Node1&#45;&gt;Node4 -->
<g id="edge3" class="edge">
<title>Node1&#45;&gt;Node4</title>
<path fill="none" stroke="midnightblue" d="M489.9,-58.32C435.92,-49.71 339.42,-34.16 257,-20 253.96,-19.48 250.81,-18.93 247.65,-18.37"/>
<polygon fill="midnightblue" stroke="midnightblue" points="489.37,-61.78 499.8,-59.9 490.47,-54.87 489.37,-61.78"/>
</g>
<!-- Node5 -->
<g id="node5" class="node">
<title>Node5</title>
<g id="a_node5"><a xlink:href="t-color256_8cpp_source.html" target="_top" xlink:title=" ">
<polygon fill="white" stroke="black" points="266,-0.5 266,-19.5 344,-19.5 344,-0.5 266,-0.5"/>
<text text-anchor="middle" x="305" y="-7.5" font-family="Helvetica,sans-Serif" font-size="10.00">t&#45;color256.cpp</text>
</a>
</g>
</g>
<!-- Node1&#45;&gt;Node5 -->
<g id="edge4" class="edge">
<title>Node1&#45;&gt;Node5</title>
<path fill="none" stroke="midnightblue" d="M490.13,-55.04C447.33,-44.86 381.54,-29.21 341,-19.56"/>
<polygon fill="midnightblue" stroke="midnightblue" points="489.42,-58.47 499.96,-57.38 491.04,-51.66 489.42,-58.47"/>
</g>
<!-- Node6 -->
<g id="node6" class="node">
<title>Node6</title>
<g id="a_node6"><a xlink:href="t-demo-extravagant_8cpp_source.html" target="_top" xlink:title=" ">
<polygon fill="white" stroke="black" points="362.5,-0.5 362.5,-19.5 481.5,-19.5 481.5,-0.5 362.5,-0.5"/>
<text text-anchor="middle" x="422" y="-7.5" font-family="Helvetica,sans-Serif" font-size="10.00">t&#45;demo&#45;extravagant.cpp</text>
</a>
</g>
</g>
<!-- Node1&#45;&gt;Node6 -->
<g id="edge5" class="edge">
<title>Node1&#45;&gt;Node6</title>
<path fill="none" stroke="midnightblue" d="M505.24,-51.86C484.84,-41.85 457.33,-28.35 439.63,-19.65"/>
<polygon fill="midnightblue" stroke="midnightblue" points="503.81,-55.06 514.33,-56.32 506.89,-48.78 503.81,-55.06"/>
</g>
<!-- Node7 -->
<g id="node7" class="node">
<title>Node7</title>
<g id="a_node7"><a xlink:href="t-demo_8cpp_source.html" target="_top" xlink:title=" ">
<polygon fill="white" stroke="black" points="499.5,-0.5 499.5,-19.5 564.5,-19.5 564.5,-0.5 499.5,-0.5"/>
<text text-anchor="middle" x="532" y="-7.5" font-family="Helvetica,sans-Serif" font-size="10.00">t&#45;demo.cpp</text>
</a>
</g>
</g>
<!-- Node1&#45;&gt;Node7 -->
<g id="edge6" class="edge">
<title>Node1&#45;&gt;Node7</title>
<path fill="none" stroke="midnightblue" d="M532,-45.8C532,-36.91 532,-26.78 532,-19.75"/>
<polygon fill="midnightblue" stroke="midnightblue" points="528.5,-46.08 532,-56.08 535.5,-46.08 528.5,-46.08"/>
</g>
<!-- Node8 -->
<g id="node8" class="node">
<title>Node8</title>
<g id="a_node8"><a xlink:href="t-dump_8cpp_source.html" target="_top" xlink:title=" ">
<polygon fill="white" stroke="black" points="582.5,-0.5 582.5,-19.5 647.5,-19.5 647.5,-0.5 582.5,-0.5"/>
<text text-anchor="middle" x="615" y="-7.5" font-family="Helvetica,sans-Serif" font-size="10.00">t&#45;dump.cpp</text>
</a>
</g>
</g>
<!-- Node1&#45;&gt;Node8 -->
<g id="edge7" class="edge">
<title>Node1&#45;&gt;Node8</title>
<path fill="none" stroke="midnightblue" d="M554.1,-50.62C569.26,-40.76 588.88,-27.99 601.7,-19.65"/>
<polygon fill="midnightblue" stroke="midnightblue" points="551.81,-47.94 545.34,-56.32 555.63,-53.8 551.81,-47.94"/>
</g>
<!-- Node9 -->
<g id="node9" class="node">
<title>Node9</title>
<g id="a_node9"><a xlink:href="t-fmt-constructors_8cpp_source.html" target="_top" xlink:title=" ">
<polygon fill="white" stroke="black" points="665.5,-0.5 665.5,-19.5 778.5,-19.5 778.5,-0.5 665.5,-0.5"/>
<text text-anchor="middle" x="722" y="-7.5" font-family="Helvetica,sans-Serif" font-size="10.00">t&#45;fmt&#45;constructors.cpp</text>
</a>
</g>
</g>
<!-- Node1&#45;&gt;Node9 -->
<g id="edge8" class="edge">
<title>Node1&#45;&gt;Node9</title>
<path fill="none" stroke="midnightblue" d="M571.76,-53.7C607.62,-43.51 659.57,-28.74 692.03,-19.52"/>
<polygon fill="midnightblue" stroke="midnightblue" points="570.77,-50.34 562.11,-56.44 572.68,-57.08 570.77,-50.34"/>
</g>
<!-- Node10 -->
<g id="node10" class="node">
<title>Node10</title>
<g id="a_node10"><a xlink:href="t-hash-color_8cpp_source.html" target="_top" xlink:title=" ">
<polygon fill="white" stroke="black" points="797,-0.5 797,-19.5 883,-19.5 883,-0.5 797,-0.5"/>
<text text-anchor="middle" x="840" y="-7.5" font-family="Helvetica,sans-Serif" font-size="10.00">t&#45;hash&#45;color.cpp</text>
</a>
</g>
</g>
<!-- Node1&#45;&gt;Node10 -->
<g id="edge9" class="edge">
<title>Node1&#45;&gt;Node10</title>
<path fill="none" stroke="midnightblue" d="M574.1,-57.62C632.6,-47.36 737.92,-28.9 796.93,-18.55"/>
<polygon fill="midnightblue" stroke="midnightblue" points="573.34,-54.2 564.09,-59.37 574.54,-61.09 573.34,-54.2"/>
</g>
<!-- Node11 -->
<g id="node11" class="node">
<title>Node11</title>
<g id="a_node11"><a xlink:href="t-log_8cpp_source.html" target="_top" xlink:title=" ">
<polygon fill="white" stroke="black" points="901,-0.5 901,-19.5 955,-19.5 955,-0.5 901,-0.5"/>
<text text-anchor="middle" x="928" y="-7.5" font-family="Helvetica,sans-Serif" font-size="10.00">t&#45;log.cpp</text>
</a>
</g>
</g>
<!-- Node1&#45;&gt;Node11 -->
<g id="edge10" class="edge">
<title>Node1&#45;&gt;Node11</title>
<path fill="none" stroke="midnightblue" d="M574.74,-61.34C642.42,-55.17 778.28,-41.24 892,-20 894.91,-19.46 897.94,-18.82 900.95,-18.13"/>
<polygon fill="midnightblue" stroke="midnightblue" points="574.12,-57.88 564.47,-62.26 574.75,-64.85 574.12,-57.88"/>
</g>
<!-- Node12 -->
<g id="node12" class="node">
<title>Node12</title>
<g id="a_node12"><a xlink:href="t-one-line-if_8cpp_source.html" target="_top" xlink:title=" ">
<polygon fill="white" stroke="black" points="973.5,-0.5 973.5,-19.5 1056.5,-19.5 1056.5,-0.5 973.5,-0.5"/>
<text text-anchor="middle" x="1015" y="-7.5" font-family="Helvetica,sans-Serif" font-size="10.00">t&#45;one&#45;line&#45;if.cpp</text>
</a>
</g>
</g>
<!-- Node1&#45;&gt;Node12 -->
<g id="edge11" class="edge">
<title>Node1&#45;&gt;Node12</title>
<path fill="none" stroke="midnightblue" d="M574.38,-61.59C651.92,-55.13 821.71,-39.94 964,-20 967.03,-19.58 970.15,-19.11 973.29,-18.61"/>
<polygon fill="midnightblue" stroke="midnightblue" points="573.75,-58.13 564.07,-62.44 574.32,-65.11 573.75,-58.13"/>
</g>
</g>
</svg>
