<?xml version="1.0" encoding="UTF-8" standalone="no"?>
<!DOCTYPE svg PUBLIC "-//W3C//DTD SVG 1.1//EN"
 "http://www.w3.org/Graphics/SVG/1.1/DTD/svg11.dtd">
<!-- Generated by graphviz version 2.43.0 (0)
 -->
<!-- Title: clutchlog.h Pages: 1 -->
<svg width="1172pt" height="84pt"
 viewBox="0.00 0.00 1171.50 84.00" xmlns="http://www.w3.org/2000/svg" xmlns:xlink="http://www.w3.org/1999/xlink">
<g id="graph0" class="graph" transform="scale(1 1) rotate(0) translate(4 80)">
<title>clutchlog.h</title>
<polygon fill="white" stroke="transparent" points="-4,4 -4,-80 1167.5,-80 1167.5,4 -4,4"/>
<!-- Node1 -->
<g id="node1" class="node">
<title>Node1</title>
<g id="a_node1"><a xlink:title=" ">
<polygon fill="#bfbfbf" stroke="black" points="547,-56.5 547,-75.5 611,-75.5 611,-56.5 547,-56.5"/>
<text text-anchor="middle" x="579" y="-63.5" font-family="Helvetica,sans-Serif" font-size="10.00">clutchlog.h</text>
</a>
</g>
</g>
<!-- Node2 -->
<g id="node2" class="node">
<title>Node2</title>
<g id="a_node2"><a xlink:href="t-assert_8cpp_source.html" target="_top" xlink:title=" ">
<polygon fill="white" stroke="black" points="0,-0.5 0,-19.5 68,-19.5 68,-0.5 0,-0.5"/>
<text text-anchor="middle" x="34" y="-7.5" font-family="Helvetica,sans-Serif" font-size="10.00">t&#45;assert.cpp</text>
</a>
</g>
</g>
<!-- Node1&#45;&gt;Node2 -->
<g id="edge1" class="edge">
<title>Node1&#45;&gt;Node2</title>
<path fill="none" stroke="midnightblue" d="M536.61,-62.88C449.93,-58.17 246.28,-45.21 77,-20 74.13,-19.57 71.17,-19.07 68.2,-18.54"/>
<polygon fill="midnightblue" stroke="midnightblue" points="536.67,-66.39 546.84,-63.42 537.04,-59.4 536.67,-66.39"/>
</g>
<!-- Node3 -->
<g id="node3" class="node">
<title>Node3</title>
<g id="a_node3"><a xlink:href="t-color_8cpp_source.html" target="_top" xlink:title=" ">
<polygon fill="white" stroke="black" points="86,-0.5 86,-19.5 148,-19.5 148,-0.5 86,-0.5"/>
<text text-anchor="middle" x="117" y="-7.5" font-family="Helvetica,sans-Serif" font-size="10.00">t&#45;color.cpp</text>
</a>
</g>
</g>
<!-- Node1&#45;&gt;Node3 -->
<g id="edge2" class="edge">
<title>Node1&#45;&gt;Node3</title>
<path fill="none" stroke="midnightblue" d="M536.64,-62.1C460.36,-56.53 294.99,-42.8 157,-20 154.19,-19.54 151.28,-19 148.38,-18.42"/>
<polygon fill="midnightblue" stroke="midnightblue" points="536.58,-65.61 546.8,-62.84 537.08,-58.63 536.58,-65.61"/>
</g>
<!-- Node4 -->
<g id="node4" class="node">
<title>Node4</title>
<g id="a_node4"><a xlink:href="t-color16_m_8cpp_source.html" target="_top" xlink:title=" ">
<polygon fill="white" stroke="black" points="166.5,-0.5 166.5,-19.5 247.5,-19.5 247.5,-0.5 166.5,-0.5"/>
<text text-anchor="middle" x="207" y="-7.5" font-family="Helvetica,sans-Serif" font-size="10.00">t&#45;color16M.cpp</text>
</a>
</g>
</g>
<!-- Node1&#45;&gt;Node4 -->
<g id="edge3" class="edge">
<title>Node1&#45;&gt;Node4</title>
<path fill="none" stroke="midnightblue" d="M536.84,-59.64C475.25,-51.7 357.11,-36 257,-20 253.95,-19.51 250.8,-18.99 247.64,-18.45"/>
<polygon fill="midnightblue" stroke="midnightblue" points="536.58,-63.14 546.95,-60.94 537.47,-56.2 536.58,-63.14"/>
</g>
<!-- Node5 -->
<g id="node5" class="node">
<title>Node5</title>
<g id="a_node5"><a xlink:href="t-color256_8cpp_source.html" target="_top" xlink:title=" ">
<polygon fill="white" stroke="black" points="266,-0.5 266,-19.5 344,-19.5 344,-0.5 266,-0.5"/>
<text text-anchor="middle" x="305" y="-7.5" font-family="Helvetica,sans-Serif" font-size="10.00">t&#45;color256.cpp</text>
</a>
</g>
</g>
<!-- Node1&#45;&gt;Node5 -->
<g id="edge4" class="edge">
<title>Node1&#45;&gt;Node5</title>
<path fill="none" stroke="midnightblue" d="M536.76,-56.68C484.23,-46.32 395.24,-28.78 344.17,-18.72"/>
<polygon fill="midnightblue" stroke="midnightblue" points="536.27,-60.15 546.76,-58.65 537.63,-53.28 536.27,-60.15"/>
</g>
<!-- Node6 -->
<g id="node6" class="node">
<title>Node6</title>
<g id="a_node6"><a xlink:href="t-demo-extravagant_8cpp_source.html" target="_top" xlink:title=" ">
<polygon fill="white" stroke="black" points="362.5,-0.5 362.5,-19.5 481.5,-19.5 481.5,-0.5 362.5,-0.5"/>
<text text-anchor="middle" x="422" y="-7.5" font-family="Helvetica,sans-Serif" font-size="10.00">t&#45;demo&#45;extravagant.cpp</text>
</a>
</g>
</g>
<!-- Node1&#45;&gt;Node6 -->
<g id="edge5" class="edge">
<title>Node1&#45;&gt;Node6</title>
<path fill="none" stroke="midnightblue" d="M544.61,-53.17C515.05,-43 473.13,-28.59 446.76,-19.52"/>
<polygon fill="midnightblue" stroke="midnightblue" points="543.53,-56.5 554.12,-56.44 545.8,-49.88 543.53,-56.5"/>
</g>
<!-- Node7 -->
<g id="node7" class="node">
<title>Node7</title>
<g id="a_node7"><a xlink:href="t-demo_8cpp_source.html" target="_top" xlink:title=" ">
<polygon fill="white" stroke="black" points="499.5,-0.5 499.5,-19.5 564.5,-19.5 564.5,-0.5 499.5,-0.5"/>
<text text-anchor="middle" x="532" y="-7.5" font-family="Helvetica,sans-Serif" font-size="10.00">t&#45;demo.cpp</text>
</a>
</g>
</g>
<!-- Node1&#45;&gt;Node7 -->
<g id="edge6" class="edge">
<title>Node1&#45;&gt;Node7</title>
<path fill="none" stroke="midnightblue" d="M564.58,-48.43C556.34,-38.97 546.35,-27.48 539.62,-19.75"/>
<polygon fill="midnightblue" stroke="midnightblue" points="562.03,-50.84 571.24,-56.08 567.31,-46.24 562.03,-50.84"/>
</g>
<!-- Node8 -->
<g id="node8" class="node">
<title>Node8</title>
<g id="a_node8"><a xlink:href="t-depth-delta_8cpp_source.html" target="_top" xlink:title=" ">
<polygon fill="white" stroke="black" points="582.5,-0.5 582.5,-19.5 671.5,-19.5 671.5,-0.5 582.5,-0.5"/>
<text text-anchor="middle" x="627" y="-7.5" font-family="Helvetica,sans-Serif" font-size="10.00">t&#45;depth&#45;delta.cpp</text>
</a>
</g>
</g>
<!-- Node1&#45;&gt;Node8 -->
<g id="edge7" class="edge">
<title>Node1&#45;&gt;Node8</title>
<path fill="none" stroke="midnightblue" d="M593.73,-48.43C602.14,-38.97 612.35,-27.48 619.22,-19.75"/>
<polygon fill="midnightblue" stroke="midnightblue" points="590.95,-46.28 586.93,-56.08 596.19,-50.93 590.95,-46.28"/>
</g>
<!-- Node9 -->
<g id="node9" class="node">
<title>Node9</title>
<g id="a_node9"><a xlink:href="t-dump_8cpp_source.html" target="_top" xlink:title=" ">
<polygon fill="white" stroke="black" points="689.5,-0.5 689.5,-19.5 754.5,-19.5 754.5,-0.5 689.5,-0.5"/>
<text text-anchor="middle" x="722" y="-7.5" font-family="Helvetica,sans-Serif" font-size="10.00">t&#45;dump.cpp</text>
</a>
</g>
</g>
<!-- Node1&#45;&gt;Node9 -->
<g id="edge8" class="edge">
<title>Node1&#45;&gt;Node9</title>
<path fill="none" stroke="midnightblue" d="M611.03,-52.91C637.91,-42.75 675.64,-28.51 699.45,-19.52"/>
<polygon fill="midnightblue" stroke="midnightblue" points="609.78,-49.64 601.66,-56.44 612.25,-56.19 609.78,-49.64"/>
</g>
<!-- Node10 -->
<g id="node10" class="node">
<title>Node10</title>
<g id="a_node10"><a xlink:href="t-fmt-constructors_8cpp_source.html" target="_top" xlink:title=" ">
<polygon fill="white" stroke="black" points="772.5,-0.5 772.5,-19.5 885.5,-19.5 885.5,-0.5 772.5,-0.5"/>
<text text-anchor="middle" x="829" y="-7.5" font-family="Helvetica,sans-Serif" font-size="10.00">t&#45;fmt&#45;constructors.cpp</text>
</a>
</g>
</g>
<!-- Node1&#45;&gt;Node10 -->
<g id="edge9" class="edge">
<title>Node1&#45;&gt;Node10</title>
<path fill="none" stroke="midnightblue" d="M621.04,-55.92C668.05,-45.77 743.61,-29.44 789.54,-19.52"/>
<polygon fill="midnightblue" stroke="midnightblue" points="620.21,-52.52 611.17,-58.05 621.68,-59.36 620.21,-52.52"/>
</g>
<!-- Node11 -->
<g id="node11" class="node">
<title>Node11</title>
<g id="a_node11"><a xlink:href="t-hash-color_8cpp_source.html" target="_top" xlink:title=" ">
<polygon fill="white" stroke="black" points="904,-0.5 904,-19.5 990,-19.5 990,-0.5 904,-0.5"/>
<text text-anchor="middle" x="947" y="-7.5" font-family="Helvetica,sans-Serif" font-size="10.00">t&#45;hash&#45;color.cpp</text>
</a>
</g>
</g>
<!-- Node1&#45;&gt;Node11 -->
<g id="edge10" class="edge">
<title>Node1&#45;&gt;Node11</title>
<path fill="none" stroke="midnightblue" d="M621.32,-59.38C682,-51.24 797.2,-35.42 895,-20 897.9,-19.54 900.88,-19.06 903.89,-18.56"/>
<polygon fill="midnightblue" stroke="midnightblue" points="620.79,-55.92 611.35,-60.72 621.72,-62.86 620.79,-55.92"/>
</g>
<!-- Node12 -->
<g id="node12" class="node">
<title>Node12</title>
<g id="a_node12"><a xlink:href="t-log_8cpp_source.html" target="_top" xlink:title=" ">
<polygon fill="white" stroke="black" points="1008,-0.5 1008,-19.5 1062,-19.5 1062,-0.5 1008,-0.5"/>
<text text-anchor="middle" x="1035" y="-7.5" font-family="Helvetica,sans-Serif" font-size="10.00">t&#45;log.cpp</text>
</a>
</g>
</g>
<!-- Node1&#45;&gt;Node12 -->
<g id="edge11" class="edge">
<title>Node1&#45;&gt;Node12</title>
<path fill="none" stroke="midnightblue" d="M621.21,-62.42C697.22,-57.33 861.94,-44.35 999,-20 1001.92,-19.48 1004.95,-18.86 1007.96,-18.19"/>
<polygon fill="midnightblue" stroke="midnightblue" points="620.84,-58.93 611.09,-63.08 621.3,-65.92 620.84,-58.93"/>
</g>
<!-- Node13 -->
<g id="node13" class="node">
<title>Node13</title>
<g id="a_node13"><a xlink:href="t-one-line-if_8cpp_source.html" target="_top" xlink:title=" ">
<polygon fill="white" stroke="black" points="1080.5,-0.5 1080.5,-19.5 1163.5,-19.5 1163.5,-0.5 1080.5,-0.5"/>
<text text-anchor="middle" x="1122" y="-7.5" font-family="Helvetica,sans-Serif" font-size="10.00">t&#45;one&#45;line&#45;if.cpp</text>
</a>
</g>
</g>
<!-- Node1&#45;&gt;Node13 -->
<g id="edge12" class="edge">
<title>Node1&#45;&gt;Node13</title>
<path fill="none" stroke="midnightblue" d="M621.11,-62.34C706.3,-56.69 905.12,-42.18 1071,-20 1074.03,-19.59 1077.15,-19.14 1080.3,-18.65"/>
<polygon fill="midnightblue" stroke="midnightblue" points="620.8,-58.85 611.05,-63 621.26,-65.84 620.8,-58.85"/>
</g>
</g>
</svg>
