<?xml version="1.0" encoding="UTF-8" standalone="no"?>
<!DOCTYPE svg PUBLIC "-//W3C//DTD SVG 1.1//EN"
 "http://www.w3.org/Graphics/SVG/1.1/DTD/svg11.dtd">
<!-- Generated by graphviz version 2.43.0 (0)
 -->
<!-- Title: clutchlog.h Pages: 1 -->
<svg width="709pt" height="84pt"
 viewBox="0.00 0.00 708.50 84.00" xmlns="http://www.w3.org/2000/svg" xmlns:xlink="http://www.w3.org/1999/xlink">
<g id="graph0" class="graph" transform="scale(1 1) rotate(0) translate(4 80)">
<title>clutchlog.h</title>
<polygon fill="white" stroke="transparent" points="-4,4 -4,-80 704.5,-80 704.5,4 -4,4"/>
<!-- Node1 -->
<g id="node1" class="node">
<title>Node1</title>
<g id="a_node1"><a xlink:title=" ">
<polygon fill="#bfbfbf" stroke="black" points="351,-56.5 351,-75.5 415,-75.5 415,-56.5 351,-56.5"/>
<text text-anchor="middle" x="383" y="-63.5" font-family="Helvetica,sans-Serif" font-size="10.00">clutchlog.h</text>
</a>
</g>
</g>
<!-- Node2 -->
<g id="node2" class="node">
<title>Node2</title>
<g id="a_node2"><a xlink:title=" ">
<polygon fill="white" stroke="#bfbfbf" points="0,-0.5 0,-19.5 50,-19.5 50,-0.5 0,-0.5"/>
<text text-anchor="middle" x="25" y="-7.5" font-family="Helvetica,sans-Serif" font-size="10.00">ciso646</text>
</a>
</g>
</g>
<!-- Node1&#45;&gt;Node2 -->
<g id="edge1" class="edge">
<title>Node1&#45;&gt;Node2</title>
<path fill="none" stroke="midnightblue" d="M350.59,-61.81C293.73,-55.93 172.18,-42.11 60.28,-20.05"/>
<polygon fill="midnightblue" stroke="midnightblue" points="60.66,-16.55 50.17,-18.03 59.29,-23.42 60.66,-16.55"/>
</g>
<!-- Node3 -->
<g id="node3" class="node">
<title>Node3</title>
<g id="a_node3"><a xlink:title=" ">
<polygon fill="white" stroke="#bfbfbf" points="68,-0.5 68,-19.5 130,-19.5 130,-0.5 68,-0.5"/>
<text text-anchor="middle" x="99" y="-7.5" font-family="Helvetica,sans-Serif" font-size="10.00">filesystem</text>
</a>
</g>
</g>
<!-- Node1&#45;&gt;Node3 -->
<g id="edge2" class="edge">
<title>Node1&#45;&gt;Node3</title>
<path fill="none" stroke="midnightblue" d="M350.95,-59.5C306.06,-51.71 221.68,-36.73 140.32,-20.21"/>
<polygon fill="midnightblue" stroke="midnightblue" points="140.92,-16.76 130.42,-18.19 139.52,-23.62 140.92,-16.76"/>
</g>
<!-- Node4 -->
<g id="node4" class="node">
<title>Node4</title>
<g id="a_node4"><a xlink:title=" ">
<polygon fill="white" stroke="#bfbfbf" points="148,-0.5 148,-19.5 202,-19.5 202,-0.5 148,-0.5"/>
<text text-anchor="middle" x="175" y="-7.5" font-family="Helvetica,sans-Serif" font-size="10.00">iostream</text>
</a>
</g>
</g>
<!-- Node1&#45;&gt;Node4 -->
<g id="edge3" class="edge">
<title>Node1&#45;&gt;Node4</title>
<path fill="none" stroke="midnightblue" d="M350.96,-56.68C313.43,-46.94 251.38,-30.83 211.88,-20.57"/>
<polygon fill="midnightblue" stroke="midnightblue" points="212.67,-17.16 202.11,-18.04 210.91,-23.94 212.67,-17.16"/>
</g>
<!-- Node5 -->
<g id="node5" class="node">
<title>Node5</title>
<g id="a_node5"><a xlink:title=" ">
<polygon fill="white" stroke="#bfbfbf" points="220,-0.5 220,-19.5 272,-19.5 272,-0.5 220,-0.5"/>
<text text-anchor="middle" x="246" y="-7.5" font-family="Helvetica,sans-Serif" font-size="10.00">sstream</text>
</a>
</g>
</g>
<!-- Node1&#45;&gt;Node5 -->
<g id="edge4" class="edge">
<title>Node1&#45;&gt;Node5</title>
<path fill="none" stroke="midnightblue" d="M361.29,-56.44C338.65,-47.52 302.93,-33.44 277.25,-23.32"/>
<polygon fill="midnightblue" stroke="midnightblue" points="278.19,-19.93 267.61,-19.52 275.63,-26.44 278.19,-19.93"/>
</g>
<!-- Node6 -->
<g id="node6" class="node">
<title>Node6</title>
<g id="a_node6"><a xlink:title=" ">
<polygon fill="white" stroke="#bfbfbf" points="290,-0.5 290,-19.5 340,-19.5 340,-0.5 290,-0.5"/>
<text text-anchor="middle" x="315" y="-7.5" font-family="Helvetica,sans-Serif" font-size="10.00">fstream</text>
</a>
</g>
</g>
<!-- Node1&#45;&gt;Node6 -->
<g id="edge5" class="edge">
<title>Node1&#45;&gt;Node6</title>
<path fill="none" stroke="midnightblue" d="M372.07,-56.32C361.83,-48.18 346.28,-35.84 334,-26.09"/>
<polygon fill="midnightblue" stroke="midnightblue" points="336.13,-23.31 326.12,-19.83 331.78,-28.79 336.13,-23.31"/>
</g>
<!-- Node7 -->
<g id="node7" class="node">
<title>Node7</title>
<g id="a_node7"><a xlink:title=" ">
<polygon fill="white" stroke="#bfbfbf" points="358.5,-0.5 358.5,-19.5 407.5,-19.5 407.5,-0.5 358.5,-0.5"/>
<text text-anchor="middle" x="383" y="-7.5" font-family="Helvetica,sans-Serif" font-size="10.00">cassert</text>
</a>
</g>
</g>
<!-- Node1&#45;&gt;Node7 -->
<g id="edge6" class="edge">
<title>Node1&#45;&gt;Node7</title>
<path fill="none" stroke="midnightblue" d="M383,-56.08C383,-49.01 383,-38.86 383,-29.99"/>
<polygon fill="midnightblue" stroke="midnightblue" points="386.5,-29.75 383,-19.75 379.5,-29.75 386.5,-29.75"/>
</g>
<!-- Node8 -->
<g id="node8" class="node">
<title>Node8</title>
<g id="a_node8"><a xlink:title=" ">
<polygon fill="white" stroke="#bfbfbf" points="425.5,-0.5 425.5,-19.5 470.5,-19.5 470.5,-0.5 425.5,-0.5"/>
<text text-anchor="middle" x="448" y="-7.5" font-family="Helvetica,sans-Serif" font-size="10.00">cstdlib</text>
</a>
</g>
</g>
<!-- Node1&#45;&gt;Node8 -->
<g id="edge7" class="edge">
<title>Node1&#45;&gt;Node8</title>
<path fill="none" stroke="midnightblue" d="M393.44,-56.32C403.15,-48.26 417.82,-36.08 429.5,-26.37"/>
<polygon fill="midnightblue" stroke="midnightblue" points="431.91,-28.92 437.37,-19.83 427.44,-23.53 431.91,-28.92"/>
</g>
<!-- Node9 -->
<g id="node9" class="node">
<title>Node9</title>
<g id="a_node9"><a xlink:title=" ">
<polygon fill="white" stroke="#bfbfbf" points="488.5,-0.5 488.5,-19.5 529.5,-19.5 529.5,-0.5 488.5,-0.5"/>
<text text-anchor="middle" x="509" y="-7.5" font-family="Helvetica,sans-Serif" font-size="10.00">string</text>
</a>
</g>
</g>
<!-- Node1&#45;&gt;Node9 -->
<g id="edge8" class="edge">
<title>Node1&#45;&gt;Node9</title>
<path fill="none" stroke="midnightblue" d="M402.97,-56.44C423.61,-47.6 456.06,-33.69 479.63,-23.59"/>
<polygon fill="midnightblue" stroke="midnightblue" points="481.32,-26.67 489.13,-19.52 478.56,-20.24 481.32,-26.67"/>
</g>
<!-- Node10 -->
<g id="node10" class="node">
<title>Node10</title>
<g id="a_node10"><a xlink:title=" ">
<polygon fill="white" stroke="#bfbfbf" points="548,-0.5 548,-19.5 588,-19.5 588,-0.5 548,-0.5"/>
<text text-anchor="middle" x="568" y="-7.5" font-family="Helvetica,sans-Serif" font-size="10.00">limits</text>
</a>
</g>
</g>
<!-- Node1&#45;&gt;Node10 -->
<g id="edge9" class="edge">
<title>Node1&#45;&gt;Node10</title>
<path fill="none" stroke="midnightblue" d="M413.25,-56.47C442.75,-48.11 489.13,-34.85 537.94,-20.28"/>
<polygon fill="midnightblue" stroke="midnightblue" points="539.16,-23.57 547.73,-17.35 537.15,-16.86 539.16,-23.57"/>
</g>
<!-- Node11 -->
<g id="node11" class="node">
<title>Node11</title>
<g id="a_node11"><a xlink:title=" ">
<polygon fill="white" stroke="#bfbfbf" points="606.5,-0.5 606.5,-19.5 647.5,-19.5 647.5,-0.5 606.5,-0.5"/>
<text text-anchor="middle" x="627" y="-7.5" font-family="Helvetica,sans-Serif" font-size="10.00">regex</text>
</a>
</g>
</g>
<!-- Node1&#45;&gt;Node11 -->
<g id="edge10" class="edge">
<title>Node1&#45;&gt;Node11</title>
<path fill="none" stroke="midnightblue" d="M415.1,-59.12C455.24,-51.59 526.24,-37.63 596.5,-19.95"/>
<polygon fill="midnightblue" stroke="midnightblue" points="597.58,-23.28 606.41,-17.43 595.85,-16.5 597.58,-23.28"/>
</g>
<!-- Node12 -->
<g id="node12" class="node">
<title>Node12</title>
<g id="a_node12"><a xlink:title=" ">
<polygon fill="white" stroke="#bfbfbf" points="665.5,-0.5 665.5,-19.5 700.5,-19.5 700.5,-0.5 665.5,-0.5"/>
<text text-anchor="middle" x="683" y="-7.5" font-family="Helvetica,sans-Serif" font-size="10.00">map</text>
</a>
</g>
</g>
<!-- Node1&#45;&gt;Node12 -->
<g id="edge11" class="edge">
<title>Node1&#45;&gt;Node12</title>
<path fill="none" stroke="midnightblue" d="M415.01,-61.54C464.76,-55.77 563.71,-42.76 655.5,-20.05"/>
<polygon fill="midnightblue" stroke="midnightblue" points="656.38,-23.44 665.22,-17.6 654.67,-16.65 656.38,-23.44"/>
</g>
</g>
</svg>
