<?xml version="1.0" encoding="UTF-8" standalone="no"?>
<!DOCTYPE svg PUBLIC "-//W3C//DTD SVG 1.1//EN"
 "http://www.w3.org/Graphics/SVG/1.1/DTD/svg11.dtd">
<!-- Generated by graphviz version 2.43.0 (0)
 -->
<!-- Title: clutchlog.h Pages: 1 -->
<!--zoomable 84 -->
<svg id="main" version="1.1" xmlns="http://www.w3.org/2000/svg" xmlns:xlink="http://www.w3.org/1999/xlink" xml:space="preserve" onload="init(evt)">
<style type="text/css"><![CDATA[
.edge:hover path { stroke: red; }
.edge:hover polygon { stroke: red; fill: red; }
]]></style>
<script type="text/javascript"><![CDATA[
var edges = document.getElementsByTagName('g');
if (edges && edges.length) {
  for (var i=0;i<edges.length;i++) {
    if (edges[i].id.substr(0,4)=='edge') {
      edges[i].setAttribute('class','edge');
    }
  }
}
]]></script>
        <defs>
                <circle id="rim" cx="0" cy="0" r="7"/>
                <circle id="rim2" cx="0" cy="0" r="3.5"/>
                <g id="zoomPlus">
                        <use xlink:href="#rim" fill="#404040">
                                <set attributeName="fill" to="#808080" begin="zoomplus.mouseover" end="zoomplus.mouseout"/>
                        </use>
                        <path d="M-4,0h8M0,-4v8" fill="none" stroke="white" stroke-width="1.5" pointer-events="none"/>
                </g>
                <g id="zoomMin">
                        <use xlink:href="#rim" fill="#404040">
                                <set attributeName="fill" to="#808080" begin="zoomminus.mouseover" end="zoomminus.mouseout"/>
                        </use>
                        <path d="M-4,0h8" fill="none" stroke="white" stroke-width="1.5" pointer-events="none"/>
                </g>
                <g id="dirArrow">
                        <path fill="none" stroke="white" stroke-width="1.5" d="M0,-3.0v7 M-2.5,-0.5L0,-3.0L2.5,-0.5"/>
                </g>
               <g id="resetDef">
                       <use xlink:href="#rim2" fill="#404040">
                               <set attributeName="fill" to="#808080" begin="reset.mouseover" end="reset.mouseout"/>
                       </use>
               </g>
        </defs>

<script type="text/javascript">
var viewWidth = 1213;
var viewHeight = 84;
var sectionId = 'dynsection-1';
</script>
<script xlink:href="svgpan.js"/>
<svg id="graph" class="graph">
<g id="viewport">
<title>clutchlog.h</title>
<polygon fill="white" stroke="transparent" points="-4,4 -4,-80 1208.5,-80 1208.5,4 -4,4"/>
<!-- Node1 -->
<g id="node1" class="node">
<title>Node1</title>
<g id="a_node1"><a xlink:title=" ">
<polygon fill="#bfbfbf" stroke="black" points="553,-56.5 553,-75.5 617,-75.5 617,-56.5 553,-56.5"/>
<text text-anchor="middle" x="585" y="-63.5" font-family="Helvetica,sans-Serif" font-size="10.00">clutchlog.h</text>
</a>
</g>
</g>
<!-- Node2 -->
<g id="node2" class="node">
<title>Node2</title>
<g id="a_node2"><a xlink:href="t-assert_8cpp_source.html" target="_top" xlink:title=" ">
<polygon fill="white" stroke="black" points="0,-0.5 0,-19.5 68,-19.5 68,-0.5 0,-0.5"/>
<text text-anchor="middle" x="34" y="-7.5" font-family="Helvetica,sans-Serif" font-size="10.00">t&#45;assert.cpp</text>
</a>
</g>
</g>
<!-- Node1&#45;&gt;Node2 -->
<g id="edge1" class="edge">
<title>Node1&#45;&gt;Node2</title>
<path fill="none" stroke="midnightblue" d="M542.69,-62.94C455.31,-58.32 248.69,-45.48 77,-20 74.13,-19.57 71.17,-19.08 68.2,-18.54"/>
<polygon fill="midnightblue" stroke="midnightblue" points="542.58,-66.44 552.75,-63.47 542.95,-59.45 542.58,-66.44"/>
</g>
<!-- Node3 -->
<g id="node3" class="node">
<title>Node3</title>
<g id="a_node3"><a xlink:href="t-color_8cpp_source.html" target="_top" xlink:title=" ">
<polygon fill="white" stroke="black" points="86,-0.5 86,-19.5 148,-19.5 148,-0.5 86,-0.5"/>
<text text-anchor="middle" x="117" y="-7.5" font-family="Helvetica,sans-Serif" font-size="10.00">t&#45;color.cpp</text>
</a>
</g>
</g>
<!-- Node1&#45;&gt;Node3 -->
<g id="edge2" class="edge">
<title>Node1&#45;&gt;Node3</title>
<path fill="none" stroke="midnightblue" d="M542.62,-62.19C465.52,-56.71 297.3,-43.08 157,-20 154.19,-19.54 151.28,-19 148.38,-18.42"/>
<polygon fill="midnightblue" stroke="midnightblue" points="542.66,-65.7 552.88,-62.91 543.15,-58.72 542.66,-65.7"/>
</g>
<!-- Node4 -->
<g id="node4" class="node">
<title>Node4</title>
<g id="a_node4"><a xlink:href="t-color16_m_8cpp_source.html" target="_top" xlink:title=" ">
<polygon fill="white" stroke="black" points="166.5,-0.5 166.5,-19.5 247.5,-19.5 247.5,-0.5 166.5,-0.5"/>
<text text-anchor="middle" x="207" y="-7.5" font-family="Helvetica,sans-Serif" font-size="10.00">t&#45;color16M.cpp</text>
</a>
</g>
</g>
<!-- Node1&#45;&gt;Node4 -->
<g id="edge3" class="edge">
<title>Node1&#45;&gt;Node4</title>
<path fill="none" stroke="midnightblue" d="M542.54,-59.75C479.94,-51.88 359.23,-36.21 257,-20 253.95,-19.52 250.8,-19 247.64,-18.46"/>
<polygon fill="midnightblue" stroke="midnightblue" points="542.45,-63.27 552.81,-61.04 543.32,-56.32 542.45,-63.27"/>
</g>
<!-- Node5 -->
<g id="node5" class="node">
<title>Node5</title>
<g id="a_node5"><a xlink:href="t-color256_8cpp_source.html" target="_top" xlink:title=" ">
<polygon fill="white" stroke="black" points="266,-0.5 266,-19.5 344,-19.5 344,-0.5 266,-0.5"/>
<text text-anchor="middle" x="305" y="-7.5" font-family="Helvetica,sans-Serif" font-size="10.00">t&#45;color256.cpp</text>
</a>
</g>
</g>
<!-- Node1&#45;&gt;Node5 -->
<g id="edge4" class="edge">
<title>Node1&#45;&gt;Node5</title>
<path fill="none" stroke="midnightblue" d="M542.99,-56.9C489.23,-46.53 396.81,-28.71 344.36,-18.59"/>
<polygon fill="midnightblue" stroke="midnightblue" points="542.4,-60.35 552.88,-58.81 543.72,-53.48 542.4,-60.35"/>
</g>
<!-- Node6 -->
<g id="node6" class="node">
<title>Node6</title>
<g id="a_node6"><a xlink:href="t-demo_8cpp_source.html" target="_top" xlink:title=" ">
<polygon fill="white" stroke="black" points="362.5,-0.5 362.5,-19.5 427.5,-19.5 427.5,-0.5 362.5,-0.5"/>
<text text-anchor="middle" x="395" y="-7.5" font-family="Helvetica,sans-Serif" font-size="10.00">t&#45;demo.cpp</text>
</a>
</g>
</g>
<!-- Node1&#45;&gt;Node6 -->
<g id="edge5" class="edge">
<title>Node1&#45;&gt;Node6</title>
<path fill="none" stroke="midnightblue" d="M545.24,-53.7C509.38,-43.51 457.43,-28.74 424.97,-19.52"/>
<polygon fill="midnightblue" stroke="midnightblue" points="544.32,-57.08 554.89,-56.44 546.23,-50.34 544.32,-57.08"/>
</g>
<!-- Node7 -->
<g id="node7" class="node">
<title>Node7</title>
<g id="a_node7"><a xlink:href="t-depth-delta_8cpp_source.html" target="_top" xlink:title=" ">
<polygon fill="white" stroke="black" points="445.5,-0.5 445.5,-19.5 534.5,-19.5 534.5,-0.5 445.5,-0.5"/>
<text text-anchor="middle" x="490" y="-7.5" font-family="Helvetica,sans-Serif" font-size="10.00">t&#45;depth&#45;delta.cpp</text>
</a>
</g>
</g>
<!-- Node1&#45;&gt;Node7 -->
<g id="edge6" class="edge">
<title>Node1&#45;&gt;Node7</title>
<path fill="none" stroke="midnightblue" d="M560.68,-51.18C543.2,-41.24 520.17,-28.15 505.23,-19.65"/>
<polygon fill="midnightblue" stroke="midnightblue" points="559.31,-54.43 569.74,-56.32 562.77,-48.34 559.31,-54.43"/>
</g>
<!-- Node8 -->
<g id="node8" class="node">
<title>Node8</title>
<g id="a_node8"><a xlink:href="t-dump_8cpp_source.html" target="_top" xlink:title=" ">
<polygon fill="white" stroke="black" points="552.5,-0.5 552.5,-19.5 617.5,-19.5 617.5,-0.5 552.5,-0.5"/>
<text text-anchor="middle" x="585" y="-7.5" font-family="Helvetica,sans-Serif" font-size="10.00">t&#45;dump.cpp</text>
</a>
</g>
</g>
<!-- Node1&#45;&gt;Node8 -->
<g id="edge7" class="edge">
<title>Node1&#45;&gt;Node8</title>
<path fill="none" stroke="midnightblue" d="M585,-45.8C585,-36.91 585,-26.78 585,-19.75"/>
<polygon fill="midnightblue" stroke="midnightblue" points="581.5,-46.08 585,-56.08 588.5,-46.08 581.5,-46.08"/>
</g>
<!-- Node9 -->
<g id="node9" class="node">
<title>Node9</title>
<g id="a_node9"><a xlink:href="t-extra_8cpp_source.html" target="_top" xlink:title=" ">
<polygon fill="white" stroke="black" points="635.5,-0.5 635.5,-19.5 698.5,-19.5 698.5,-0.5 635.5,-0.5"/>
<text text-anchor="middle" x="667" y="-7.5" font-family="Helvetica,sans-Serif" font-size="10.00">t&#45;extra.cpp</text>
</a>
</g>
</g>
<!-- Node1&#45;&gt;Node9 -->
<g id="edge8" class="edge">
<title>Node1&#45;&gt;Node9</title>
<path fill="none" stroke="midnightblue" d="M606.83,-50.62C621.81,-40.76 641.2,-27.99 653.86,-19.65"/>
<polygon fill="midnightblue" stroke="midnightblue" points="604.6,-47.9 598.17,-56.32 608.45,-53.75 604.6,-47.9"/>
</g>
<!-- Node10 -->
<g id="node10" class="node">
<title>Node10</title>
<g id="a_node10"><a xlink:href="t-filename_8cpp_source.html" target="_top" xlink:title=" ">
<polygon fill="white" stroke="black" points="717,-0.5 717,-19.5 795,-19.5 795,-0.5 717,-0.5"/>
<text text-anchor="middle" x="756" y="-7.5" font-family="Helvetica,sans-Serif" font-size="10.00">t&#45;filename.cpp</text>
</a>
</g>
</g>
<!-- Node1&#45;&gt;Node10 -->
<g id="edge9" class="edge">
<title>Node1&#45;&gt;Node10</title>
<path fill="none" stroke="midnightblue" d="M622.04,-53.3C654.26,-43.13 700.19,-28.62 729.03,-19.52"/>
<polygon fill="midnightblue" stroke="midnightblue" points="620.58,-50.09 612.1,-56.44 622.69,-56.77 620.58,-50.09"/>
</g>
<!-- Node11 -->
<g id="node11" class="node">
<title>Node11</title>
<g id="a_node11"><a xlink:href="t-fmt-constructors_8cpp_source.html" target="_top" xlink:title=" ">
<polygon fill="white" stroke="black" points="813.5,-0.5 813.5,-19.5 926.5,-19.5 926.5,-0.5 813.5,-0.5"/>
<text text-anchor="middle" x="870" y="-7.5" font-family="Helvetica,sans-Serif" font-size="10.00">t&#45;fmt&#45;constructors.cpp</text>
</a>
</g>
</g>
<!-- Node1&#45;&gt;Node11 -->
<g id="edge10" class="edge">
<title>Node1&#45;&gt;Node11</title>
<path fill="none" stroke="midnightblue" d="M627.21,-57C680.16,-46.97 770.6,-29.83 824.88,-19.55"/>
<polygon fill="midnightblue" stroke="midnightblue" points="626.31,-53.61 617.14,-58.91 627.62,-60.49 626.31,-53.61"/>
</g>
<!-- Node12 -->
<g id="node12" class="node">
<title>Node12</title>
<g id="a_node12"><a xlink:href="t-hash-color_8cpp_source.html" target="_top" xlink:title=" ">
<polygon fill="white" stroke="black" points="945,-0.5 945,-19.5 1031,-19.5 1031,-0.5 945,-0.5"/>
<text text-anchor="middle" x="988" y="-7.5" font-family="Helvetica,sans-Serif" font-size="10.00">t&#45;hash&#45;color.cpp</text>
</a>
</g>
</g>
<!-- Node1&#45;&gt;Node12 -->
<g id="edge11" class="edge">
<title>Node1&#45;&gt;Node12</title>
<path fill="none" stroke="midnightblue" d="M627.01,-60.22C692.95,-52.58 824.7,-36.76 936,-20 938.9,-19.56 941.89,-19.1 944.89,-18.61"/>
<polygon fill="midnightblue" stroke="midnightblue" points="626.54,-56.75 617.01,-61.37 627.34,-63.7 626.54,-56.75"/>
</g>
<!-- Node13 -->
<g id="node13" class="node">
<title>Node13</title>
<g id="a_node13"><a xlink:href="t-log_8cpp_source.html" target="_top" xlink:title=" ">
<polygon fill="white" stroke="black" points="1049,-0.5 1049,-19.5 1103,-19.5 1103,-0.5 1049,-0.5"/>
<text text-anchor="middle" x="1076" y="-7.5" font-family="Helvetica,sans-Serif" font-size="10.00">t&#45;log.cpp</text>
</a>
</g>
</g>
<!-- Node1&#45;&gt;Node13 -->
<g id="edge12" class="edge">
<title>Node1&#45;&gt;Node13</title>
<path fill="none" stroke="midnightblue" d="M627.48,-62.88C708.3,-58.38 889.55,-46.1 1040,-20 1042.92,-19.49 1045.95,-18.88 1048.96,-18.21"/>
<polygon fill="midnightblue" stroke="midnightblue" points="627.01,-59.4 617.21,-63.44 627.39,-66.39 627.01,-59.4"/>
</g>
<!-- Node14 -->
<g id="node14" class="node">
<title>Node14</title>
<g id="a_node14"><a xlink:href="t-one-line-if_8cpp_source.html" target="_top" xlink:title=" ">
<polygon fill="white" stroke="black" points="1121.5,-0.5 1121.5,-19.5 1204.5,-19.5 1204.5,-0.5 1121.5,-0.5"/>
<text text-anchor="middle" x="1163" y="-7.5" font-family="Helvetica,sans-Serif" font-size="10.00">t&#45;one&#45;line&#45;if.cpp</text>
</a>
</g>
</g>
<!-- Node1&#45;&gt;Node14 -->
<g id="edge13" class="edge">
<title>Node1&#45;&gt;Node14</title>
<path fill="none" stroke="midnightblue" d="M627.23,-62.68C716.82,-57.48 932.45,-43.46 1112,-20 1115.03,-19.6 1118.16,-19.15 1121.3,-18.67"/>
<polygon fill="midnightblue" stroke="midnightblue" points="626.97,-59.19 617.19,-63.26 627.37,-66.18 626.97,-59.19"/>
</g>
</g>
</svg>
        <g id="navigator" transform="translate(0 0)" fill="#404254">
                <rect fill="#f2f5e9" fill-opacity="0.5" stroke="#606060" stroke-width=".5" x="0" y="0" width="60" height="60"/>
                <use id="zoomplus" xlink:href="#zoomPlus" x="17" y="9" onmousedown="handleZoom(evt,'in')"/>
                <use id="zoomminus" xlink:href="#zoomMin" x="42" y="9" onmousedown="handleZoom(evt,'out')"/>
                <use id="reset" xlink:href="#resetDef" x="30" y="36" onmousedown="handleReset()"/>
                <g id="arrowUp" xlink:href="#dirArrow" transform="translate(30 24)" onmousedown="handlePan(0,-1)">
                  <use xlink:href="#rim" fill="#404040">
                        <set attributeName="fill" to="#808080" begin="arrowUp.mouseover" end="arrowUp.mouseout"/>
                  </use>
                  <path fill="none" stroke="white" stroke-width="1.5" d="M0,-3.0v7 M-2.5,-0.5L0,-3.0L2.5,-0.5"/>
                </g>
                <g id="arrowRight" xlink:href="#dirArrow" transform="rotate(90) translate(36 -43)" onmousedown="handlePan(1,0)">
                  <use xlink:href="#rim" fill="#404040">
                        <set attributeName="fill" to="#808080" begin="arrowRight.mouseover" end="arrowRight.mouseout"/>
                  </use>
                  <path fill="none" stroke="white" stroke-width="1.5" d="M0,-3.0v7 M-2.5,-0.5L0,-3.0L2.5,-0.5"/>
                </g>
                <g id="arrowDown" xlink:href="#dirArrow" transform="rotate(180) translate(-30 -48)" onmousedown="handlePan(0,1)">
                  <use xlink:href="#rim" fill="#404040">
                        <set attributeName="fill" to="#808080" begin="arrowDown.mouseover" end="arrowDown.mouseout"/>
                  </use>
                  <path fill="none" stroke="white" stroke-width="1.5" d="M0,-3.0v7 M-2.5,-0.5L0,-3.0L2.5,-0.5"/>
                </g>
                <g id="arrowLeft" xlink:href="#dirArrow" transform="rotate(270) translate(-36 17)" onmousedown="handlePan(-1,0)">
                  <use xlink:href="#rim" fill="#404040">
                        <set attributeName="fill" to="#808080" begin="arrowLeft.mouseover" end="arrowLeft.mouseout"/>
                  </use>
                  <path fill="none" stroke="white" stroke-width="1.5" d="M0,-3.0v7 M-2.5,-0.5L0,-3.0L2.5,-0.5"/>
                </g>
        </g>
        <svg viewBox="0 0 15 15" width="100%" height="30px" preserveAspectRatio="xMaxYMin meet">
         <g id="arrow_out" transform="scale(0.3 0.3)">
          <a xlink:href="clutchlog_8h__dep__incl_org.svg" target="_base">
           <rect id="button" ry="5" rx="5" y="6" x="6" height="38" width="38"
                fill="#f2f5e9" fill-opacity="0.5" stroke="#606060" stroke-width="1.0"/>
           <path id="arrow"
             d="M 11.500037,31.436501 C 11.940474,20.09759 22.043105,11.32322 32.158766,21.979434 L 37.068811,17.246167 C 37.068811,17.246167 37.088388,32 37.088388,32 L 22.160133,31.978069 C 22.160133,31.978069 26.997745,27.140456 26.997745,27.140456 C 18.528582,18.264221 13.291696,25.230495 11.500037,31.436501 z"
             style="fill:#404040;"/>
          </a>
         </g>
        </svg>
</svg>
