<?xml version="1.0" encoding="UTF-8" standalone="no"?>
<!-- Created with Inkscape (http://www.inkscape.org/) -->

<svg
   width="512mm"
   height="512mm"
   viewBox="0 0 512 512"
   version="1.1"
   id="svg5"
   inkscape:version="1.2.2 (1:1.2.2+202212051550+b0a8486541)"
   sodipodi:docname="clutchlog_logo.svg"
   inkscape:export-filename="clutchlog_logo.png"
   inkscape:export-xdpi="51.624424"
   inkscape:export-ydpi="51.624424"
   xmlns:inkscape="http://www.inkscape.org/namespaces/inkscape"
   xmlns:sodipodi="http://sodipodi.sourceforge.net/DTD/sodipodi-0.dtd"
   xmlns:xlink="http://www.w3.org/1999/xlink"
   xmlns="http://www.w3.org/2000/svg"
   xmlns:svg="http://www.w3.org/2000/svg"
   xmlns:rdf="http://www.w3.org/1999/02/22-rdf-syntax-ns#"
   xmlns:cc="http://creativecommons.org/ns#"
   xmlns:dc="http://purl.org/dc/elements/1.1/">
  <title
     id="title8430">Clutchlog logo</title>
  <sodipodi:namedview
     id="namedview7"
     pagecolor="#ffffff"
     bordercolor="#666666"
     borderopacity="1.0"
     inkscape:showpageshadow="2"
     inkscape:pageopacity="0.0"
     inkscape:pagecheckerboard="0"
     inkscape:deskcolor="#d1d1d1"
     inkscape:document-units="mm"
     showgrid="false"
     showguides="false"
     inkscape:zoom="0.3724553"
     inkscape:cx="187.94202"
     inkscape:cy="1280.6906"
     inkscape:current-layer="layer1">
    <sodipodi:guide
       position="255.99999,255.99999"
       orientation="1,0"
       id="guide931"
       inkscape:locked="false" />
    <sodipodi:guide
       position="255.99999,255.99999"
       orientation="0,-1"
       id="guide933"
       inkscape:locked="false" />
    <sodipodi:guide
       position="424.44277,394.05861"
       orientation="0,-1"
       id="guide6781"
       inkscape:locked="false" />
  </sodipodi:namedview>
  <defs
     id="defs2">
    <linearGradient
       inkscape:collect="always"
       id="linearGradient7255">
      <stop
         style="stop-color:#d5e5ff;stop-opacity:1"
         offset="0"
         id="stop7251" />
      <stop
         style="stop-color:white;stop-opacity:0"
         offset="1"
         id="stop7253" />
    </linearGradient>
    <linearGradient
       inkscape:collect="always"
       id="linearGradient817">
      <stop
         style="stop-color:#388bff;stop-opacity:1"
         offset="0"
         id="stop813" />
      <stop
         style="stop-color:#06f;stop-opacity:1"
         offset="1"
         id="stop815" />
    </linearGradient>
    <radialGradient
       inkscape:collect="always"
       xlink:href="#linearGradient817"
       id="radialGradient819"
       cx="258.64343"
       cy="357.78738"
       fx="258.64343"
       fy="357.78738"
       r="256"
       gradientUnits="userSpaceOnUse"
       gradientTransform="matrix(0.94693847,0,0,0.94693847,-2.7533672e-6,0)" />
    <filter
       inkscape:collect="always"
       style="color-interpolation-filters:sRGB"
       id="filter5591"
       x="-0.04532356"
       y="-0.067443276"
       width="1.0906471"
       height="1.1349263">
      <feGaussianBlur
         inkscape:collect="always"
         stdDeviation="3.0411218"
         id="feGaussianBlur5593" />
    </filter>
    <filter
       inkscape:collect="always"
       style="color-interpolation-filters:sRGB"
       id="filter5821"
       x="-0.049950844"
       y="-0.049960008"
       width="1.0999016"
       height="1.0999224">
      <feGaussianBlur
         inkscape:collect="always"
         stdDeviation="6.7703959"
         id="feGaussianBlur5823" />
    </filter>
    <filter
       inkscape:collect="always"
       style="color-interpolation-filters:sRGB"
       id="filter5895"
       x="-0.050073767"
       y="-0.050076713"
       width="1.1001474"
       height="1.1001532">
      <feGaussianBlur
         inkscape:collect="always"
         stdDeviation="5.2596481"
         id="feGaussianBlur5897" />
    </filter>
    <filter
       inkscape:collect="always"
       style="color-interpolation-filters:sRGB"
       id="filter6027"
       x="-0.047999999"
       y="-0.047999999"
       width="1.096"
       height="1.096">
      <feGaussianBlur
         inkscape:collect="always"
         stdDeviation="9.6966498"
         id="feGaussianBlur6029" />
    </filter>
    <linearGradient
       inkscape:collect="always"
       xlink:href="#linearGradient7255"
       id="linearGradient7257"
       x1="299.34039"
       y1="119.23599"
       x2="299.34039"
       y2="194.53358"
       gradientUnits="userSpaceOnUse"
       gradientTransform="matrix(1.2416244,0,0,1.2416244,-139.26568,-9.7350375)" />
    <filter
       inkscape:collect="always"
       style="color-interpolation-filters:sRGB"
       id="filter8261"
       x="-0.29849126"
       y="-0.30152406"
       width="1.5969825"
       height="1.6030481">
      <feGaussianBlur
         inkscape:collect="always"
         stdDeviation="2.8002027"
         id="feGaussianBlur8263" />
    </filter>
  </defs>
  <g
     inkscape:label="Calque 1"
     inkscape:groupmode="layer"
     id="layer1">
    <path
       id="rect6025"
       style="fill:#00112b;stroke-width:0.529167;stroke-linecap:round;filter:url(#filter6027)"
       d="M 30.38203,10.583336 H 495.41582 V 495.41582 H 10.583331 L 10.583331,31.088919 C 31.506143,31.575377 30.327722,30.192183 30.38203,10.583336 Z"
       sodipodi:nodetypes="cccccc" />
    <path
       id="rect234"
       style="fill:url(#radialGradient819);stroke-width:0.529167;stroke-linecap:round"
       d="M 22.514853,2.7264557e-6 H 484.83249 V 484.83249 H -2.7264557e-6 V 22.288399 Z"
       sodipodi:nodetypes="cccccc" />
    <text
       xml:space="preserve"
       style="font-style:normal;font-variant:normal;font-weight:bold;font-stretch:normal;font-size:6.13224px;line-height:1.1;font-family:'MesloLGS NF';-inkscape-font-specification:'MesloLGS NF Bold';text-align:start;writing-mode:lr-tb;text-anchor:start;fill:url(#linearGradient7257);fill-opacity:1;stroke:white;stroke-width:0.657027;stroke-linecap:round;stroke-dasharray:none;stroke-dashoffset:0"
       x="178.84775"
       y="138.91466"
       id="text7219"><tspan
         sodipodi:role="line"
         id="tspan7217"
         style="font-size:6.13224px;fill:url(#linearGradient7257);fill-opacity:1;stroke:none;stroke-width:0.657027"
         x="178.84775"
         y="138.91466">[t-demo] Warning:  Log level not indicated, will default to xdebug</tspan><tspan
         sodipodi:role="line"
         style="font-size:6.13224px;fill:url(#linearGradient7257);fill-opacity:1;stroke:none;stroke-width:0.657027"
         x="178.84775"
         y="145.66013"
         id="tspan7221">[t-demo] Progress:  Start something</tspan><tspan
         sodipodi:role="line"
         style="font-size:6.13224px;fill:url(#linearGradient7257);fill-opacity:1;stroke:none;stroke-width:0.657027"
         x="178.84775"
         y="152.40559"
         id="tspan7223">[t-demo] Progress: 	 Initialize data structures...</tspan><tspan
         sodipodi:role="line"
         style="font-size:6.13224px;fill:url(#linearGradient7257);fill-opacity:1;stroke:none;stroke-width:0.657027"
         x="178.84775"
         y="159.15106"
         id="tspan7225">[t-demo] Debug: 	 OK</tspan><tspan
         sodipodi:role="line"
         style="font-size:6.13224px;fill:url(#linearGradient7257);fill-opacity:1;stroke:none;stroke-width:0.657027"
         x="178.84775"
         y="165.89653"
         id="tspan7227">[t-demo] Progress: 	 Initialize functors...</tspan><tspan
         sodipodi:role="line"
         style="font-size:6.13224px;fill:url(#linearGradient7257);fill-opacity:1;stroke:none;stroke-width:0.657027"
         x="178.84775"
         y="172.642"
         id="tspan7229">[t-demo] Debug: 	 OK</tspan><tspan
         sodipodi:role="line"
         style="font-size:6.13224px;fill:url(#linearGradient7257);fill-opacity:1;stroke:none;stroke-width:0.657027"
         x="178.84775"
         y="179.38747"
         id="tspan7231">[t-demo] Warning: 		 Input size &lt; 1</tspan><tspan
         sodipodi:role="line"
         style="font-size:6.13224px;fill:url(#linearGradient7257);fill-opacity:1;stroke:none;stroke-width:0.657027"
         x="178.84775"
         y="186.13293"
         id="tspan7233">[t-demo] Note: 			 Filling up data of size: 0</tspan><tspan
         sodipodi:role="line"
         style="font-size:6.13224px;fill:url(#linearGradient7257);fill-opacity:1;stroke:none;stroke-width:0.657027"
         x="178.84775"
         y="192.8784"
         id="tspan7235">[t-demo] Error: 			 Cannot parse input, I will reset stuff.</tspan><tspan
         sodipodi:role="line"
         style="font-size:6.13224px;fill:url(#linearGradient7257);fill-opacity:1;stroke:none;stroke-width:0.657027"
         x="178.84775"
         y="199.62387"
         id="tspan7237">[t-demo] Progress: 				 Reset data structures...</tspan><tspan
         sodipodi:role="line"
         style="font-size:6.13224px;fill:url(#linearGradient7257);fill-opacity:1;stroke:none;stroke-width:0.657027"
         x="178.84775"
         y="206.36935"
         id="tspan7239">[t-demo] Debug: 				 OK</tspan><tspan
         sodipodi:role="line"
         style="font-size:6.13224px;fill:url(#linearGradient7257);fill-opacity:1;stroke:none;stroke-width:0.657027"
         x="178.84775"
         y="213.11482"
         id="tspan7241">[t-demo] Progress: 				 Reset functors...</tspan><tspan
         sodipodi:role="line"
         style="font-size:6.13224px;fill:url(#linearGradient7257);fill-opacity:1;stroke:none;stroke-width:0.657027"
         x="178.84775"
         y="219.86029"
         id="tspan7243">[t-demo] Critical: 				 Impossible to reset, I cannot recover.</tspan><tspan
         sodipodi:role="line"
         style="font-size:6.13224px;fill:url(#linearGradient7257);fill-opacity:1;stroke:none;stroke-width:0.657027"
         x="178.84775"
         y="226.60576"
         id="tspan7245">[t-demo] XDebug: 			 Last seen state: 0</tspan><tspan
         sodipodi:role="line"
         style="font-size:6.13224px;fill:url(#linearGradient7257);fill-opacity:1;stroke:none;stroke-width:0.657027"
         x="178.84775"
         y="233.35123"
         id="tspan7247">[t-demo] Progress:  I have stopped</tspan><tspan
         sodipodi:role="line"
         style="font-size:6.13224px;fill:url(#linearGradient7257);fill-opacity:1;stroke:none;stroke-width:0.657027"
         x="178.84775"
         y="240.09669"
         id="tspan7249" /></text>
    <text
       xml:space="preserve"
       style="font-weight:bold;font-size:48.1045px;line-height:1.1;font-family:'Liberation Mono';-inkscape-font-specification:'Liberation Mono Bold';text-align:end;writing-mode:lr-tb;text-anchor:end;fill:none;stroke:white;stroke-width:2.64583;stroke-linecap:round;stroke-dasharray:none"
       x="43.206051"
       y="84.430527"
       id="text1151"><tspan
         sodipodi:role="line"
         id="tspan1149"
         style="font-style:normal;font-variant:normal;font-weight:bold;font-stretch:normal;font-size:48.1045px;font-family:'MesloLGS NF';-inkscape-font-specification:'MesloLGS NF Bold';text-align:start;text-anchor:start;fill:white;stroke:none;stroke-width:2.64583"
         x="43.206051"
         y="84.430527">Clutchlog</tspan></text>
    <g
       id="g6384"
       transform="matrix(0.8444502,0,0,0.8444502,0.50298885,78.685564)">
      <path
         id="path2894-9"
         style="fill:#04a;fill-opacity:1;stroke:#04a;stroke-width:2.79411;stroke-dasharray:none;filter:url(#filter5895)"
         d="M 155.81836,114.94336 C 152.36516,114.97683 148.79564,115.08602 145.43359,115.47461 C 140.31557,115.71731 135.2777,116.71237 130.23592,117.55932 C 127.21432,118.12705 124.24433,118.93423 121.25716,119.65506 C 117.34142,120.6655 113.55075,121.97119 109.74327,123.25704 C 106.22368,124.52325 102.81752,126.00783 99.396622,127.49193 C 95.362828,129.38612 91.368457,131.38013 87.50681,133.6075 C 83.165973,136.19106 78.868042,138.86274 74.827262,141.90108 C 70.42873,145.03539 66.313487,148.54634 62.310671,152.16552 C 58.291224,155.98522 54.368182,159.91955 50.821024,164.18707 C 47.195074,168.33187 43.989556,172.81842 40.865816,177.34558 C 37.565721,182.37563 34.513082,187.5716 31.878509,192.98339 C 29.394577,197.96813 27.252506,203.12181 25.386889,208.36816 C 23.834824,213.01214 22.255914,217.66058 21.262724,222.4628 C 19.925778,227.69247 19.102568,233.03817 18.389448,238.38359 C 17.927561,242.67236 17.583766,246.9803 17.463978,251.29305 C 17.383022,256.58109 17.447557,261.87735 17.980301,267.143 C 18.295093,271.97054 19.160254,276.73223 19.950017,281.49135 C 20.706966,285.38437 21.695707,289.23143 22.710399,293.06404 C 23.883646,297.03381 25.170412,300.97547 26.626751,304.85124 C 28.553949,309.69586 30.583869,314.50797 33.041211,319.11136 C 34.923919,322.91038 37.098264,326.55396 39.375054,330.13025 C 41.737352,334.02806 44.514589,337.64493 47.237667,341.28943 C 49.946464,344.65995 52.743568,347.96251 55.712891,351.10742 C 59.371096,354.90992 63.159066,358.59322 67.230642,361.95499 C 71.315969,365.46039 75.685163,368.62428 80.14043,371.63924 C 84.899375,374.73297 89.77761,377.65697 94.889795,380.1331 C 99.786902,382.66337 104.91424,384.72825 110.06836,386.66992 C 113.65659,387.8647 117.24115,389.09046 120.89258,390.08008 C 124.34598,390.9126 127.79801,391.7721 131.28099,392.47393 C 136.05786,393.24018 140.83313,394.09299 145.66944,394.38608 C 150.7569,394.84943 155.86788,394.97613 160.97399,394.8495 C 165.54866,394.75824 170.11426,394.35294 174.66083,393.85592 C 180.35895,393.08215 186.03432,392.10081 191.60302,390.65187 C 196.73984,389.4335 201.7499,387.7385 206.71465,385.9572 C 211.71243,383.98001 216.6923,381.92554 221.43309,379.37863 C 224.81049,377.70576 228.09856,375.86075 231.2666,373.81898 C 235.9432,371.02328 240.32213,367.76658 244.63281,364.44336 C 249.10429,360.81162 253.43681,356.99888 257.44102,352.85138 C 261.16727,349.10463 264.59789,345.07341 267.88557,340.94056 C 271.16036,336.59731 274.36297,332.18713 277.11938,327.49171 C 279.96972,322.95083 282.37184,318.14994 284.67192,313.31267 C 287.00796,308.07333 289.18383,302.75381 290.84664,297.25912 C 292.49683,292.37798 293.64051,287.34872 294.7334,282.31909 C 295.48972,278.33191 296.13066,274.31709 296.60032,270.28595 C 297.1125,264.89356 297.51904,259.48184 297.40996,254.06097 C 297.46001,249.72731 297.13256,245.40583 296.7383,241.09338 C 296.45326,236.72729 295.5437,232.43811 294.87109,228.12305 C 294.08906,224.22903 293.11863,220.37246 292.08171,216.53875 C 290.44966,211.05441 288.64096,205.61147 286.34741,200.3649 C 284.32871,195.43268 281.89,190.68314 279.32133,186.01807 C 276.46594,181.11355 273.45349,176.29305 270.03583,171.75696 C 267.11098,167.64112 263.77757,163.84027 260.42969,160.06836 C 256.6534,156.06026 252.73923,152.16835 248.52279,148.62017 C 244.31236,144.93072 239.77324,141.64373 235.16906,138.4691 C 230.43443,135.37132 225.58292,132.43991 220.498,129.94963 C 215.72467,127.47294 210.74725,125.41434 205.73001,123.49063 C 200.35739,121.5914 194.91665,119.85431 189.34917,118.61507 C 183.87932,117.30504 178.31516,116.39762 172.7325,115.73838 C 168.87756,115.40765 165.02041,115.02683 161.1512,114.9298 C 159.37369,114.90299 157.59591,114.93725 155.81836,114.94336 Z M 157.38477,236.6543 C 162.045,236.61286 166.64459,238.54413 169.99029,241.69157 C 171.4992,243.09516 172.76093,244.78827 173.64053,246.53907 C 177.31051,253.44779 175.84781,262.71366 170.07764,268.04084 C 165.75232,272.19623 159.31538,274.13331 153.44751,272.696 C 147.91835,271.45546 142.98414,267.57178 140.77551,262.31219 C 138.29209,256.84791 138.75373,250.16014 142.04408,245.12845 C 144.48561,241.27622 148.47722,238.34978 152.8628,237.25569 C 154.33975,236.89747 155.84473,236.69317 157.38477,236.6543 Z"
         transform="scale(0.94693847)" />
      <g
         id="g5033"
         transform="matrix(0.74747444,0,0,0.74741844,220.61014,26.623253)"
         style="stroke-width:1.33789">
        <path
           id="path2894"
           style="fill:#06f;fill-opacity:1;stroke:white;stroke-width:3.53985;stroke-dasharray:none"
           d="M -98.000736,120.74508 L -98.893705,124.82442 L -99.13245,127.29869 L -99.098344,128.89291 L -104.74813,129.1146 L -104.83908,127.52348 L -105.27109,125.07505 L -106.48136,121.0784 L -111.06351,121.4391 L -111.63401,125.57528 L -111.67794,128.06143 L -111.51877,129.64738 L -117.13394,130.31246 L -117.34943,128.73271 L -117.97213,126.32562 L -119.49245,122.43645 L -124.03222,123.15579 L -124.27614,127.32401 L -124.12472,129.80551 L -123.84154,131.37493 L -129.38745,132.4777 L -129.72645,130.92017 L -130.5357,128.56941 L -132.35626,124.8115 L -136.82576,125.88431 L -136.74204,130.05924 L -136.39633,132.52111 L -135.99118,134.06313 L -141.43323,135.59792 L -141.89315,134.0714 L -142.88482,131.79196 L -144.99477,128.18856 L -149.36608,129.60863 L -148.95473,133.76393 L -148.4173,136.19117 L -147.89226,137.6965 L -153.19685,139.65349 L -153.77563,138.16779 L -154.943,135.9731 L -157.3289,132.54643 L -161.57515,134.3055 L -160.83928,138.41532 L -160.11271,140.79347 L -159.4714,142.2523 L -164.60649,144.6196 L -165.29947,143.18403 L -166.63582,141.08751 L -169.28321,137.85877 L -173.37856,139.94546 L -172.3223,143.98501 L -171.41176,146.29856 L -170.6578,147.70313 L -175.59083,150.46575 L -176.3944,149.08909 L -177.89147,147.10368 L -180.7838,144.0925 L -184.70294,146.4939 L -183.333,150.43836 L -182.24366,152.67337 L -181.38169,154.01437 L -186.08322,157.15578 L -186.9922,155.8463 L -188.63965,153.9844 L -191.75987,151.20937 L -195.47851,153.91102 L -193.80316,157.73611 L -192.54174,159.87861 L -191.57745,161.14779 L -196.01801,164.64835 L -197.02725,163.41431 L -198.81577,161.68729 L -202.14373,159.166 L -205.63913,162.15083 L -203.66871,165.83226 L -202.24295,167.86934 L -201.18204,169.05893 L -205.33424,172.89746 L -206.43701,171.74611 L -208.35576,170.16481 L -211.87131,167.91223 L -215.12124,171.16216 L -212.86866,174.67771 L -211.28736,176.59646 L -210.13653,177.69923 L -213.97454,181.85143 L -215.16413,180.79052 L -217.20121,179.36476 L -220.88264,177.39486 L -223.86799,180.88973 L -221.34618,184.21821 L -219.61915,186.00673 L -218.38564,187.01597 L -221.88568,191.45601 L -223.15537,190.49173 L -225.29736,189.23031 L -229.12245,187.55496 L -231.82409,191.2736 L -229.04907,194.39382 L -227.18717,196.04126 L -225.87769,196.95077 L -229.0191,201.65177 L -230.3601,200.79033 L -232.5951,199.70047 L -236.53957,198.33105 L -238.94097,202.24967 L -235.92979,205.14252 L -233.94438,206.63907 L -232.56772,207.44264 L -235.33034,212.37618 L -236.7349,211.62171 L -239.04846,210.71117 L -243.08852,209.6549 L -245.1747,213.75026 L -241.94596,216.39816 L -239.84944,217.734 L -238.41387,218.42698 L -240.78117,223.56206 L -242.24051,222.92076 L -244.61814,222.19419 L -248.72849,221.45832 L -250.48704,225.70457 L -247.06089,228.09099 L -244.86567,229.25836 L -243.37998,229.83662 L -245.33696,235.14172 L -246.8423,234.61617 L -249.26954,234.07874 L -253.42484,233.66739 L -254.84543,238.0387 L -251.24203,240.14865 L -248.96206,241.14032 L -247.43554,241.60076 L -248.97033,247.0428 L -250.51236,246.63714 L -252.97422,246.29143 L -257.14916,246.20771 L -258.22196,250.67721 L -254.46457,252.49777 L -252.11381,253.30754 L -250.55577,253.64653 L -251.65906,259.19193 L -253.22795,258.90926 L -255.70946,258.75733 L -259.87768,259.00176 L -260.59701,263.54102 L -256.70785,265.06134 L -254.30127,265.68404 L -252.72153,265.90005 L -253.38608,271.51521 L -254.97203,271.35605 L -257.45819,271.39945 L -261.59437,271.96996 L -261.95507,276.55211 L -257.95893,277.76237 L -255.5105,278.19439 L -253.91887,278.28534 L -254.14108,283.93564 L -255.73478,283.90153 L -258.20956,284.13976 L -262.28838,285.03325 V 289.62935 L -258.20956,290.52232 L -255.73478,290.76106 L -254.14108,290.72696 L -253.91887,296.37674 L -255.5105,296.46769 L -257.95893,296.89971 L -261.95507,298.11049 L -261.59437,302.69264 L -257.45819,303.26263 L -254.97203,303.30655 L -253.38608,303.14739 L -252.72153,308.76255 L -254.30127,308.97804 L -256.70785,309.60074 L -260.59701,311.12106 L -259.87768,315.66084 L -255.70946,315.90475 L -253.22795,315.75334 L -251.65906,315.47015 L -250.55577,321.01606 L -252.11381,321.35506 L -254.46457,322.16483 L -258.22196,323.98539 L -257.14916,328.45437 L -252.97422,328.37065 L -250.51236,328.02494 L -248.97033,327.6198 L -247.43554,333.06184 L -248.96206,333.52176 L -251.24203,334.51343 L -254.84543,336.62338 L -253.42484,340.99469 L -249.26954,340.58386 L -246.8423,340.04591 L -245.33696,339.52088 L -243.37998,344.82546 L -244.86567,345.40424 L -247.06089,346.57161 L -250.48704,348.95751 L -248.72849,353.20428 L -244.61814,352.46841 L -242.24051,351.74184 L -240.78117,351.10002 L -238.41387,356.2351 L -239.84944,356.92808 L -241.94596,358.26444 L -245.1747,360.91182 L -243.08852,365.00718 L -239.04846,363.95091 L -236.7349,363.04037 L -235.33034,362.28641 L -232.56772,367.21996 L -233.94438,368.02353 L -235.92979,369.52008 L -238.94097,372.41293 L -236.53957,376.33155 L -232.5951,374.96213 L -230.3601,373.87227 L -229.0191,373.01031 L -225.87769,377.71183 L -227.18717,378.62082 L -229.04907,380.26826 L -231.82409,383.38848 L -229.12245,387.10712 L -225.29736,385.43229 L -223.15537,384.17087 L -221.88568,383.20607 L -218.38564,387.64662 L -219.61915,388.65586 L -221.34618,390.44438 L -223.86799,393.77235 L -220.88264,397.26774 L -217.20121,395.29784 L -215.16413,393.87208 L -213.97454,392.81117 L -210.13653,396.96285 L -211.28736,398.06614 L -212.86866,399.98437 L -215.12124,403.49992 L -211.87131,406.75037 L -208.35576,404.49727 L -206.43701,402.91649 L -205.33424,401.76514 L -201.18204,405.60367 L -202.24295,406.79326 L -203.66871,408.82983 L -205.63913,412.51125 L -202.14373,415.4966 L -198.81577,412.97479 L -197.02725,411.24828 L -196.01801,410.01425 L -191.57745,413.51481 L -192.54174,414.78398 L -193.80316,416.92597 L -195.47851,420.75158 L -191.75987,423.45271 L -188.63965,420.67768 L -186.9922,418.8163 L -186.08322,417.50682 L -181.38169,420.64771 L -182.24366,421.98871 L -183.333,424.22372 L -184.70294,428.16818 L -180.7838,430.5701 L -177.89147,427.5584 L -176.3944,425.57351 L -175.59083,424.19633 L -170.6578,426.95947 L -171.41176,428.36352 L -172.3223,430.67707 L -173.37856,434.71713 L -169.28321,436.80383 L -166.63582,433.57457 L -165.29947,431.47806 L -164.60649,430.04248 L -159.4714,432.40978 L -160.11271,433.86912 L -160.83928,436.24676 L -161.57515,440.3571 L -157.3289,442.11617 L -154.943,438.6895 L -153.77563,436.49429 L -153.19685,435.00859 L -147.89226,436.96558 L -148.4173,438.47091 L -148.95473,440.89867 L -149.36608,445.05345 L -144.99477,446.47404 L -142.88482,442.87064 L -141.89315,440.59068 L -141.43323,439.06467 L -135.99118,440.59946 L -136.39633,442.14097 L -136.74204,444.60335 L -136.82576,448.77778 L -132.35626,449.85109 L -130.5357,446.09318 L -129.72645,443.74242 L -129.38745,442.1849 L -123.84154,443.28767 L -124.12472,444.85657 L -124.27614,447.33807 L -124.03222,451.50681 L -119.49245,452.22563 L -117.97213,448.33646 L -117.34943,445.92989 L -117.13394,444.35014 L -111.51877,445.0147 L -111.67794,446.60116 L -111.63401,449.0868 L -111.06351,453.2235 L -106.48136,453.58368 L -105.27109,449.58754 L -104.83908,447.13912 L -104.74813,445.54748 L -99.098344,445.76969 L -99.13245,447.36339 L -98.893705,449.83818 L -98.000736,453.917 H -93.404118 L -92.511149,449.83818 L -92.272404,447.36339 L -92.30651,445.76969 L -86.656726,445.54748 L -86.565776,447.13912 L -86.133761,449.58754 L -84.923499,453.58368 L -80.341349,453.2235 L -79.770841,449.0868 L -79.726917,446.60116 L -79.88608,445.0147 L -74.270919,444.35014 L -74.055428,445.92989 L -73.432727,448.33646 L -71.912406,452.22563 L -67.372632,451.50681 L -67.128719,447.33807 L -67.280131,444.85657 L -67.563318,443.28767 L -62.017403,442.1849 L -61.678406,443.74242 L -60.869153,446.09318 L -59.048592,449.85109 L -54.579097,448.77778 L -54.662813,444.60335 L -55.008529,442.14097 L -55.413672,440.59946 L -49.971627,439.06467 L -49.511707,440.59068 L -48.520036,442.87064 L -46.410087,446.47404 L -42.038778,445.05345 L -42.450122,440.89867 L -42.987557,438.47091 L -43.51259,436.96558 L -38.208004,435.00859 L -37.629228,436.49429 L -36.461857,438.6895 L -34.075956,442.11617 L -29.829704,440.3571 L -30.565576,436.24676 L -31.292147,433.86912 L -31.933451,432.40978 L -26.798364,430.04248 L -26.105383,431.47806 L -24.769031,433.57457 L -22.121647,436.80383 L -18.02629,434.71713 L -19.082556,430.67707 L -19.993095,428.36352 L -20.747054,426.95947 L -15.814022,424.19633 L -15.010453,425.57351 L -13.513904,427.5584 L -10.621057,430.5701 L -6.7024333,428.16818 L -8.0718587,424.22372 L -9.1611979,421.98871 L -10.023161,420.64771 L -5.321639,417.50682 L -4.4126506,418.8163 L -2.7652059,420.67768 L 0.35501709,423.45271 L 4.0736532,420.75158 L 2.3983032,416.92597 L 1.1368815,414.78398 L 0.17259928,413.51481 L 4.6131551,410.01425 L 5.6223958,411.24828 L 7.4109172,412.97479 L 10.738879,415.4966 L 14.234273,412.51125 L 12.263851,408.82983 L 10.838098,406.79326 L 9.777181,405.60367 L 13.929382,401.76514 L 15.032157,402.91649 L 16.950903,404.49727 L 20.466451,406.75037 L 23.716382,403.49992 L 21.463806,399.98437 L 19.882507,398.06614 L 18.731673,396.96285 L 22.569682,392.81117 L 23.759273,393.87208 L 25.796358,395.29784 L 29.477787,397.26774 L 32.463135,393.77235 L 29.941325,390.44438 L 28.214299,388.65586 L 26.980782,387.64662 L 30.480827,383.20607 L 31.750517,384.17087 L 33.892505,385.43229 L 37.717594,387.10712 L 40.419238,383.38848 L 37.644214,380.26826 L 35.782312,378.62082 L 34.472831,377.71183 L 37.614242,373.01031 L 38.955245,373.87227 L 41.190251,374.96213 L 45.134713,376.33155 L 47.536117,372.41293 L 44.524931,369.52008 L 42.539522,368.02353 L 41.162862,367.21996 L 43.925484,362.28641 L 45.33005,363.04037 L 47.643604,363.95091 L 51.683667,365.00718 L 53.769845,360.91182 L 50.541101,358.26444 L 48.444588,356.92808 L 47.009017,356.2351 L 49.376314,351.10002 L 50.835657,351.74184 L 53.213289,352.46841 L 57.323633,353.20428 L 59.082182,348.95751 L 55.656034,346.57161 L 53.460819,345.40424 L 51.975122,344.82546 L 53.932109,339.52088 L 55.437443,340.04591 L 57.864685,340.58386 L 62.019987,340.99469 L 63.440572,336.62338 L 59.837174,334.51343 L 57.55721,333.52176 L 56.030688,333.06184 L 57.565479,327.6198 L 59.107503,328.02494 L 61.569368,328.37065 L 65.744307,328.45437 L 66.81711,323.98539 L 63.059717,322.16483 L 60.708956,321.35506 L 59.150911,321.01606 L 60.254203,315.47015 L 61.8231,315.75334 L 64.304602,315.90475 L 68.472823,315.66084 L 69.192159,311.12106 L 65.302991,309.60074 L 62.896419,308.97804 L 61.316671,308.76255 L 61.98123,303.14739 L 63.567179,303.30655 L 66.053333,303.26263 L 70.189514,302.69264 L 70.550216,298.11049 L 66.554077,296.89971 L 64.105648,296.46769 L 62.514014,296.37674 L 62.736222,290.72696 L 64.329924,290.76106 L 66.804708,290.52232 L 70.883529,289.62935 V 285.03325 L 66.804708,284.13976 L 64.329924,283.90153 L 62.736222,283.93564 L 62.514014,278.28534 L 64.105648,278.19439 L 66.554077,277.76237 L 70.550216,276.55211 L 70.189514,271.96996 L 66.053333,271.39945 L 63.567179,271.35605 L 61.98123,271.51521 L 61.316671,265.90005 L 62.896419,265.68404 L 65.302991,265.06134 L 69.192159,263.54102 L 68.472823,259.00176 L 64.304602,258.75733 L 61.8231,258.90926 L 60.254203,259.19193 L 59.150911,253.64653 L 60.708956,253.30754 L 63.059717,252.49777 L 66.81711,250.67721 L 65.744307,246.20771 L 61.569368,246.29143 L 59.107503,246.63714 L 57.565479,247.0428 L 56.030688,241.60076 L 57.55721,241.14032 L 59.837174,240.14865 L 63.440572,238.0387 L 62.019987,233.66739 L 57.864685,234.07874 L 55.437443,234.61617 L 53.932109,235.14172 L 51.975122,229.83662 L 53.460819,229.25836 L 55.656034,228.09099 L 59.082182,225.70457 L 57.323633,221.45832 L 53.213289,222.19419 L 50.835657,222.92076 L 49.376314,223.56206 L 47.009017,218.42698 L 48.444588,217.734 L 50.541101,216.39816 L 53.769845,213.75026 L 51.683667,209.6549 L 47.643604,210.71117 L 45.33005,211.62171 L 43.925484,212.37618 L 41.162862,207.44264 L 42.539522,206.63907 L 44.524931,205.14252 L 47.536117,202.24967 L 45.134713,198.33105 L 41.190251,199.70047 L 38.955245,200.79033 L 37.614242,201.65177 L 34.472831,196.95077 L 35.782312,196.04126 L 37.644214,194.39382 L 40.419238,191.2736 L 37.717594,187.55496 L 33.892505,189.23031 L 31.750517,190.49173 L 30.480827,191.45601 L 26.980782,187.01597 L 28.214299,186.00673 L 29.941325,184.21821 L 32.463135,180.88973 L 29.477787,177.39486 L 25.796358,179.36476 L 23.759273,180.79052 L 22.569682,181.85143 L 18.731673,177.69923 L 19.882507,176.59646 L 21.463806,174.67771 L 23.716382,171.16216 L 20.466451,167.91223 L 16.950903,170.16481 L 15.032157,171.74611 L 13.929382,172.89746 L 9.777181,169.05893 L 10.838098,167.86934 L 12.263851,165.83226 L 14.234273,162.15083 L 10.738879,159.166 L 7.4109172,161.68729 L 5.6223958,163.41431 L 4.6131551,164.64835 L 0.17259928,161.14779 L 1.1368815,159.87861 L 2.3983032,157.73611 L 4.0736532,153.91102 L 0.35501709,151.20937 L -2.7652059,153.9844 L -4.4126506,155.8463 L -5.321639,157.15578 L -10.023161,154.01437 L -9.1611979,152.67337 L -8.0718587,150.43836 L -6.7024333,146.4939 L -10.621057,144.0925 L -13.513904,147.10368 L -15.010453,149.08909 L -15.814022,150.46575 L -20.747054,147.70313 L -19.993095,146.29856 L -19.082556,143.98501 L -18.02629,139.94546 L -22.121647,137.85877 L -24.769031,141.08751 L -26.105383,143.18403 L -26.798364,144.6196 L -31.933451,142.2523 L -31.292147,140.79347 L -30.565576,138.41532 L -29.829704,134.3055 L -34.075956,132.54643 L -36.461857,135.9731 L -37.629228,138.16779 L -38.208004,139.65349 L -43.51259,137.6965 L -42.987557,136.19117 L -42.450122,133.76393 L -42.038778,129.60863 L -46.410087,128.18856 L -48.520036,131.79196 L -49.511707,134.0714 L -49.971627,135.59792 L -55.413672,134.06313 L -55.008529,132.52111 L -54.662813,130.05924 L -54.579097,125.88431 L -59.048592,124.8115 L -60.869153,128.56941 L -61.678406,130.92017 L -62.017403,132.4777 L -67.563318,131.37493 L -67.280131,129.80551 L -67.128719,127.32401 L -67.372632,123.15579 L -71.912406,122.43645 L -73.432727,126.32562 L -74.055428,128.73271 L -74.270919,130.31246 L -79.88608,129.64738 L -79.726917,128.06143 L -79.770841,125.57528 L -80.341349,121.4391 L -84.923499,121.0784 L -86.133761,125.07505 L -86.565776,127.52348 L -86.656726,129.1146 L -92.30651,128.89291 L -92.272404,127.29869 L -92.511149,124.82442 L -93.404118,120.74508 Z M -95.702686,253.45481 A 33.876572,33.876572 0 0 1 -61.825684,287.3313 A 33.876572,33.876572 0 0 1 -95.702686,321.20778 A 33.876572,33.876572 0 0 1 -129.57917,287.3313 A 33.876572,33.876572 0 0 1 -95.702686,253.45481 Z" />
        <circle
           style="fill:none;stroke:white;stroke-width:3.53983;stroke-linecap:round;stroke-dasharray:none"
           id="path1717"
           cx="-95.702446"
           cy="287.33121"
           r="145.85205" />
        <circle
           style="fill:none;stroke:white;stroke-width:3.53983;stroke-linecap:round;stroke-dasharray:none"
           id="circle1719"
           cx="-95.702446"
           cy="287.33121"
           r="110.6848" />
        <circle
           style="fill:none;stroke:white;stroke-width:1.76991;stroke-linecap:round;stroke-dasharray:none"
           id="path1779"
           cx="-67.627968"
           cy="163.24284"
           r="3.7018423"
           inkscape:transform-center-x="-28.074466"
           inkscape:transform-center-y="-124.08835" />
        <use
           x="0"
           y="0"
           xlink:href="#g1783"
           inkscape:transform-center-x="-61.185078"
           inkscape:transform-center-y="-114.02938"
           id="use1787"
           transform="rotate(15,-95.702434,287.33121)"
           style="stroke:white;stroke-width:1.33789" />
        <use
           x="0"
           y="0"
           xlink:href="#g1783"
           inkscape:transform-center-x="-87.397823"
           inkscape:transform-center-y="-95.009772"
           id="use1789"
           transform="rotate(30,-95.702427,287.33121)"
           style="stroke:white;stroke-width:1.33789" />
        <use
           x="0"
           y="0"
           xlink:href="#g1783"
           inkscape:transform-center-x="-107.65455"
           inkscape:transform-center-y="-66.8042"
           id="use1791"
           transform="rotate(45,-95.702431,287.3312)"
           style="stroke:white;stroke-width:1.33789" />
        <use
           x="0"
           y="0"
           xlink:href="#g1783"
           inkscape:transform-center-x="-120.5748"
           inkscape:transform-center-y="-34.046034"
           id="use1793"
           transform="rotate(60,-95.702434,287.33121)"
           style="stroke:white;stroke-width:1.33789" />
        <use
           x="0"
           y="0"
           xlink:href="#g1783"
           inkscape:transform-center-x="-126.10353"
           inkscape:transform-center-y="-1.6788895"
           id="use1795"
           transform="rotate(75,-95.702428,287.3312)"
           style="stroke:white;stroke-width:1.33789" />
        <use
           x="0"
           y="0"
           xlink:href="#g1783"
           inkscape:transform-center-x="-125.27808"
           inkscape:transform-center-y="30.802668"
           id="use1797"
           transform="rotate(90,-95.702431,287.3312)"
           style="stroke:white;stroke-width:1.33789" />
        <use
           x="0"
           y="0"
           xlink:href="#g1783"
           inkscape:transform-center-x="-114.02938"
           inkscape:transform-center-y="61.185074"
           id="use1799"
           transform="rotate(105,-95.70243,287.3312)"
           style="stroke:white;stroke-width:1.33789" />
        <use
           x="0"
           y="0"
           xlink:href="#g1783"
           inkscape:transform-center-x="-95.009775"
           inkscape:transform-center-y="87.39782"
           id="use1801"
           transform="rotate(120,-95.70243,287.3312)"
           style="stroke:white;stroke-width:1.33789" />
        <use
           x="0"
           y="0"
           xlink:href="#g1783"
           inkscape:transform-center-x="-66.804202"
           inkscape:transform-center-y="107.65455"
           id="use1803"
           transform="rotate(135,-95.70243,287.3312)"
           style="stroke:white;stroke-width:1.33789" />
        <use
           x="0"
           y="0"
           xlink:href="#g1783"
           inkscape:transform-center-x="-34.046038"
           inkscape:transform-center-y="120.5748"
           id="use1805"
           transform="rotate(150,-95.70243,287.33121)"
           style="stroke:white;stroke-width:1.33789" />
        <use
           x="0"
           y="0"
           xlink:href="#g1783"
           inkscape:transform-center-x="-1.6788914"
           inkscape:transform-center-y="126.10353"
           id="use1807"
           transform="rotate(165,-95.70243,287.3312)"
           style="stroke:white;stroke-width:1.33789" />
        <use
           x="0"
           y="0"
           xlink:href="#g1783"
           inkscape:transform-center-x="30.802665"
           inkscape:transform-center-y="125.27808"
           id="use1809"
           transform="rotate(180,-95.70243,287.33121)"
           style="stroke:white;stroke-width:1.33789" />
        <use
           x="0"
           y="0"
           xlink:href="#g1783"
           inkscape:transform-center-x="61.185075"
           inkscape:transform-center-y="114.02938"
           id="use1811"
           transform="rotate(-165,-95.70243,287.3312)"
           style="stroke:white;stroke-width:1.33789" />
        <use
           x="0"
           y="0"
           xlink:href="#g1783"
           inkscape:transform-center-x="87.397821"
           inkscape:transform-center-y="95.009774"
           id="use1813"
           transform="rotate(-150,-95.70243,287.33121)"
           style="stroke:white;stroke-width:1.33789" />
        <use
           x="0"
           y="0"
           xlink:href="#g1783"
           inkscape:transform-center-x="107.65455"
           inkscape:transform-center-y="66.804201"
           id="use1815"
           transform="rotate(-135,-95.70243,287.3312)"
           style="stroke:white;stroke-width:1.33789" />
        <use
           x="0"
           y="0"
           xlink:href="#g1783"
           inkscape:transform-center-x="120.5748"
           inkscape:transform-center-y="34.046037"
           id="use1817"
           transform="rotate(-120,-95.70243,287.3312)"
           style="stroke:white;stroke-width:1.33789" />
        <use
           x="0"
           y="0"
           xlink:href="#g1783"
           inkscape:transform-center-x="126.10353"
           inkscape:transform-center-y="1.6788906"
           id="use1819"
           transform="rotate(-105,-95.70243,287.3312)"
           style="stroke:white;stroke-width:1.33789" />
        <use
           x="0"
           y="0"
           xlink:href="#g1783"
           inkscape:transform-center-x="125.27808"
           inkscape:transform-center-y="-30.802666"
           id="use1821"
           transform="rotate(-90,-95.70243,287.3312)"
           style="stroke:white;stroke-width:1.33789" />
        <use
           x="0"
           y="0"
           xlink:href="#g1783"
           inkscape:transform-center-x="114.02938"
           inkscape:transform-center-y="-61.185072"
           id="use1823"
           transform="rotate(-75,-95.70243,287.3312)"
           style="stroke:white;stroke-width:1.33789" />
        <use
           x="0"
           y="0"
           xlink:href="#g1783"
           inkscape:transform-center-x="95.009773"
           inkscape:transform-center-y="-87.397817"
           id="use1825"
           transform="rotate(-60,-95.70243,287.3312)"
           style="stroke:white;stroke-width:1.33789" />
        <use
           x="0"
           y="0"
           xlink:href="#g1783"
           inkscape:transform-center-x="66.804204"
           inkscape:transform-center-y="-107.65455"
           id="use1827"
           transform="rotate(-45,-95.70243,287.3312)"
           style="stroke:white;stroke-width:1.33789" />
        <use
           x="0"
           y="0"
           xlink:href="#g1783"
           inkscape:transform-center-x="34.046038"
           inkscape:transform-center-y="-120.5748"
           id="use1829"
           transform="rotate(-30,-95.70243,287.33121)"
           style="stroke:white;stroke-width:1.33789" />
        <use
           x="0"
           y="0"
           xlink:href="#g1783"
           inkscape:transform-center-x="1.6788939"
           inkscape:transform-center-y="-126.10353"
           id="use1831"
           transform="rotate(-15,-95.70243,287.33119)"
           style="stroke:white;stroke-width:1.33789" />
        <use
           x="0"
           y="0"
           xlink:href="#path1779"
           inkscape:transform-center-x="-86.357375"
           inkscape:transform-center-y="-93.426432"
           id="use1833"
           transform="rotate(30,-95.702427,287.3312)"
           style="stroke:white;stroke-width:1.33789" />
        <use
           x="0"
           y="0"
           xlink:href="#path1779"
           inkscape:transform-center-x="-121.5009"
           inkscape:transform-center-y="-37.730978"
           id="use1835"
           transform="rotate(60,-95.702434,287.3312)"
           style="stroke:white;stroke-width:1.33789" />
        <use
           x="0"
           y="0"
           xlink:href="#path1779"
           inkscape:transform-center-x="-124.08835"
           inkscape:transform-center-y="28.074461"
           id="use1837"
           transform="rotate(90,-95.702431,287.33119)"
           style="stroke:white;stroke-width:1.33789" />
        <use
           x="0"
           y="0"
           xlink:href="#path1779"
           inkscape:transform-center-x="-93.426433"
           inkscape:transform-center-y="86.357371"
           id="use1839"
           transform="rotate(120,-95.70243,287.33119)"
           style="stroke:white;stroke-width:1.33789" />
        <use
           x="0"
           y="0"
           xlink:href="#path1779"
           inkscape:transform-center-x="-37.730979"
           inkscape:transform-center-y="121.5009"
           id="use1841"
           transform="rotate(150,-95.70243,287.3312)"
           style="stroke:white;stroke-width:1.33789" />
        <use
           x="0"
           y="0"
           xlink:href="#path1779"
           inkscape:transform-center-x="28.07446"
           inkscape:transform-center-y="124.08835"
           id="use1843"
           transform="rotate(180,-95.70243,287.3312)"
           style="stroke:white;stroke-width:1.33789" />
        <use
           x="0"
           y="0"
           xlink:href="#path1779"
           inkscape:transform-center-x="86.35737"
           inkscape:transform-center-y="93.426429"
           id="use1845"
           transform="rotate(-150,-95.70243,287.3312)"
           style="stroke:white;stroke-width:1.33789" />
        <use
           x="0"
           y="0"
           xlink:href="#path1779"
           inkscape:transform-center-x="121.5009"
           inkscape:transform-center-y="37.730975"
           id="use1847"
           transform="rotate(-120,-95.70243,287.33119)"
           style="stroke:white;stroke-width:1.33789" />
        <use
           x="0"
           y="0"
           xlink:href="#path1779"
           inkscape:transform-center-x="124.08835"
           inkscape:transform-center-y="-28.074464"
           id="use1849"
           transform="rotate(-90,-95.702429,287.33119)"
           style="stroke:white;stroke-width:1.33789" />
        <use
           x="0"
           y="0"
           xlink:href="#path1779"
           inkscape:transform-center-x="93.426428"
           inkscape:transform-center-y="-86.357378"
           id="use1851"
           transform="rotate(-60,-95.70243,287.33118)"
           style="stroke:white;stroke-width:1.33789" />
        <use
           x="0"
           y="0"
           xlink:href="#path1779"
           inkscape:transform-center-x="37.730977"
           inkscape:transform-center-y="-121.5009"
           id="use1853"
           transform="rotate(-30,-95.70244,287.33119)"
           style="stroke:white;stroke-width:1.33789" />
        <g
           id="g1918"
           inkscape:transform-center-x="4.7501624e-06"
           inkscape:transform-center-y="-70.246376"
           style="stroke:white;stroke-width:1.33789"
           transform="translate(-351.70243,31.331193)">
          <rect
             style="fill:none;stroke:white;stroke-width:1.76991;stroke-linecap:round;stroke-dasharray:none"
             id="rect1909"
             width="74.869186"
             height="22.531914"
             x="218.5654"
             y="174.48767"
             rx="17.848335"
             ry="17.84967" />
          <path
             style="fill:none;stroke:white;stroke-width:3.53983;stroke-linecap:round;stroke-dasharray:none"
             d="M 240.12498,197.01958 L 234.08757,174.48767"
             id="path1911" />
          <use
             x="0"
             y="0"
             xlink:href="#path1911"
             id="use1913"
             transform="translate(26.458334)"
             style="stroke:white;stroke-width:1.33789" />
          <use
             x="0"
             y="0"
             xlink:href="#path1911"
             id="use1981"
             transform="translate(13.758332)"
             style="stroke:white;stroke-width:1.33789" />
          <use
             x="0"
             y="0"
             xlink:href="#path1911"
             id="use1983"
             transform="translate(38.629169)"
             style="stroke:white;stroke-width:1.33789" />
        </g>
        <use
           x="0"
           y="0"
           xlink:href="#g1918"
           inkscape:transform-center-x="-70.246376"
           inkscape:transform-center-y="-1.0957275e-05"
           id="use1920"
           transform="rotate(90,-95.702431,287.33119)"
           style="stroke:white;stroke-width:1.33789" />
        <use
           x="0"
           y="0"
           xlink:href="#g1918"
           inkscape:transform-center-x="-1.0957275e-05"
           inkscape:transform-center-y="70.246369"
           id="use1922"
           transform="rotate(180,-95.70243,287.3312)"
           style="stroke:white;stroke-width:1.33789" />
        <use
           x="0"
           y="0"
           xlink:href="#g1918"
           inkscape:transform-center-x="70.246369"
           inkscape:transform-center-y="3.9572753e-06"
           id="use1924"
           transform="rotate(-90,-95.702429,287.33119)"
           style="stroke:white;stroke-width:1.33789" />
        <g
           id="g1783"
           inkscape:transform-center-x="-30.802671"
           inkscape:transform-center-y="-125.27807"
           style="stroke:white;stroke-width:1.33789"
           transform="translate(-351.70243,31.331193)">
          <path
             style="fill:none;stroke:white;stroke-width:1.06195;stroke-linecap:round;stroke-dasharray:none"
             d="M 255.99999,145.3152 L 281.28957,112.35718"
             id="path1775"
             inkscape:transform-center-x="-12.644783"
             inkscape:transform-center-y="-127.16381" />
          <use
             x="0"
             y="0"
             xlink:href="#path1775"
             inkscape:transform-center-x="-45.126338"
             inkscape:transform-center-y="-119.5581"
             id="use1777"
             transform="rotate(15,256,256)"
             style="stroke:white;stroke-width:1.33789" />
        </g>
      </g>
    </g>
    <g
       id="g6330"
       transform="matrix(0.8444502,0,0,0.8444502,0.50298885,78.685564)">
      <path
         id="path5632"
         style="fill:#04a;stroke:#04a;stroke-width:3.53983;stroke-linecap:round;filter:url(#filter5821)"
         inkscape:transform-center-x="7.7641078e-06"
         inkscape:transform-center-y="-133.02185"
         d="M 285.33984,75.71875 C 264.70262,75.771636 244.06298,75.627905 223.42773,75.925781 C 215.67303,76.768032 209.08609,83.234755 207.66016,90.833984 C 199.89434,87.142631 191.34296,84.712326 182.68629,84.990056 C 175.32213,85.319896 167.97132,88.374358 163.00385,93.907225 C 159.15279,98.005623 156.71084,103.12889 153.87363,107.91966 C 150.90264,112.36838 146.19934,115.15645 141.90822,118.16243 C 135.72301,122.3651 129.47856,126.74121 124.81538,132.67782 C 119.6798,138.92226 116.00953,146.31178 110.23538,152.03756 C 106.22526,155.67917 101.14771,157.79245 96.79336,160.9567 C 91.840944,164.4286 87.683538,169.36959 86.126462,175.30411 C 84.257058,182.07772 85.107723,189.2695 86.842643,195.9754 C 87.902611,200.00709 89.360159,203.92908 91.105469,207.71289 C 86.800602,208.37365 82.740472,210.61877 80.029479,214.04727 C 76.6267,218.16127 75.168009,223.69673 75.753893,228.97148 C 75.765939,248.80898 75.698636,268.64816 75.886719,288.48438 C 76.734416,296.2704 83.211226,302.90322 90.845703,304.3418 C 87.036552,312.27846 84.611849,321.06823 85.023054,329.9259 C 85.482931,337.28595 88.726486,344.56466 94.365811,349.40382 C 98.636477,353.33374 104.06002,355.60706 108.85087,358.78278 C 112.82055,361.8141 115.37378,366.18304 118.22952,370.17248 C 122.44969,376.37839 126.82563,382.67558 132.8346,387.30206 C 138.01857,391.52285 143.91774,394.76882 149.06055,399.04492 C 150.69115,400.4371 152.45877,401.96279 153.71849,403.7956 C 157.13911,408.49271 159.43911,413.96475 163.40935,418.26838 C 167.25088,422.62597 172.57385,425.77457 178.37625,426.53626 C 185.89686,427.69275 193.53507,426.11616 200.66464,423.73632 C 203.06073,422.90668 205.41669,421.96077 207.71289,420.88477 C 208.36162,425.1688 210.59061,429.20648 213.98837,431.91816 C 218.0851,435.33777 223.61486,436.83692 228.89141,436.24611 C 248.75235,436.23533 268.61497,436.29997 288.47461,436.10938 C 296.26686,435.27725 302.90183,428.79024 304.33789,421.1543 C 312.27008,424.95726 321.05214,427.38968 329.90443,426.98112 C 337.27056,426.52658 344.5534,423.28059 349.39868,417.63998 C 353.33132,413.37592 355.60922,407.95662 358.77213,403.16212 C 361.78222,399.19843 366.15266,396.65039 370.13357,393.79225 C 376.42884,389.49912 382.82416,385.05264 387.49895,378.93319 C 392.66074,372.50252 396.40667,364.96316 402.46957,359.31948 C 408.06944,354.84449 415.04269,352.2324 420.01843,346.95552 C 425.02994,341.84649 427.30832,334.47461 426.88898,327.40774 C 426.66246,319.36579 424.16319,311.5736 420.90039,304.2832 C 425.37837,303.61829 429.55938,301.18044 432.28711,297.55859 C 435.4868,293.45668 436.8282,288.0662 436.24805,282.925 C 436.23642,263.13633 436.29583,243.34604 436.11914,223.55859 C 435.2905,215.75664 428.80482,209.09603 421.1543,207.66211 C 424.92909,199.79017 427.35247,191.08424 426.99023,182.29883 C 426.57998,175.00879 423.47426,167.76475 417.95436,162.89278 C 413.71335,158.87258 408.26792,156.50667 403.41482,153.41177 C 399.91685,150.86905 397.55936,147.23115 395.11148,143.76564 C 390.6189,137.28968 386.30493,130.48058 380.08917,125.48483 C 373.90823,120.19256 366.49848,116.46462 360.5957,110.90039 C 357.84514,108.23974 355.98815,104.71828 354.02062,101.4338 C 350.97571,96.230479 347.17694,91.174117 341.81283,88.190939 C 336.2308,85.151997 329.62413,84.587959 323.40625,85.396484 C 316.78033,86.263165 310.33181,88.27967 304.28906,91.115234 C 303.64813,86.889619 301.45605,82.914271 298.13586,80.206695 C 294.62392,77.20087 289.97038,75.517366 285.33984,75.71875 Z M 262.84766,221.63867 C 265.88354,222.24793 268.91926,222.85885 271.95508,223.46875 C 276.72052,227.54196 281.40387,231.70964 286.11133,235.84961 C 288.15354,241.72755 290.14412,247.62325 292.14453,253.51562 C 291.03287,259.62442 289.74713,265.70487 288.5411,271.79228 C 288.04451,272.72091 287.17317,273.42621 286.52955,274.26694 C 283.09294,278.23182 279.63205,282.17556 276.17773,286.125 C 270.26172,288.13281 264.3457,290.14063 258.42969,292.14844 C 252.28148,290.98147 246.14565,289.75143 240.00781,288.53125 C 235.2966,284.41946 230.59438,280.29744 225.90039,276.16602 C 223.84476,270.26218 221.83871,264.34124 219.82227,258.42383 C 221.0366,252.28515 222.25978,246.14836 223.49414,240.01367 C 227.57803,235.27975 231.70207,230.58072 235.81836,225.875 C 241.76432,223.85091 247.71029,221.82682 253.65625,219.80273 C 256.72005,220.41471 259.78385,221.02669 262.84766,221.63867 Z"
         transform="matrix(0.74747444,0,0,0.74741845,46.94598,133.4664)" />
      <g
         id="g1663"
         style="fill:#06f;stroke-width:1.33789"
         transform="matrix(0.74747444,0,0,0.74741844,46.94598,133.46641)">
        <path
           id="rect1307"
           style="fill:#06f;stroke:white;stroke-width:3.53983;stroke-linecap:round"
           inkscape:transform-center-x="4.7501624e-06"
           inkscape:transform-center-y="-154.03758"
           d="M 218.38335,108.07477 V 94.192042 C 218.38335,90.06366 221.70692,86.740089 225.8353,86.740089 H 286.16469 C 290.29307,86.740089 293.61664,90.06366 293.61664,94.192042 V 108.23312"
           sodipodi:nodetypes="cssssc" />
        <use
           x="0"
           y="0"
           xlink:href="#rect1307"
           inkscape:transform-center-x="6.1849975e-06"
           inkscape:transform-center-y="154.03759"
           id="use1313"
           transform="rotate(180,255.99999,256.00001)"
           style="fill:#06f;stroke-width:1.33789" />
        <use
           x="0"
           y="0"
           xlink:href="#rect1307"
           inkscape:transform-center-x="154.03759"
           inkscape:transform-center-y="1.4437867e-06"
           id="use1315"
           transform="rotate(-90,255.99999,256.00001)"
           style="fill:#06f;stroke-width:1.33789" />
        <path
           id="rect1317"
           style="fill:#06f;stroke:white;stroke-width:3.53981;stroke-linecap:round"
           inkscape:transform-center-x="-99.299947"
           inkscape:transform-center-y="-99.221141"
           d="M 296.26762,108.89666 C 305.15886,100.87471 329.47346,90.624902 338.75904,99.389378 C 345.13143,105.40415 345.91056,111.86601 352.68849,118.64394 C 359.46642,125.42187 368.84904,129.47938 375.68483,136.31517 C 382.52061,143.15095 386.57813,152.53357 393.35605,159.31149 C 400.13398,166.08942 407.19228,166.35424 412.61061,173.24095 C 421.37933,184.38601 411.84786,205.47205 403.3265,215.37432"
           sodipodi:nodetypes="csssssc" />
        <use
           x="0"
           y="0"
           xlink:href="#rect1317"
           inkscape:transform-center-x="-99.221139"
           inkscape:transform-center-y="99.29994"
           id="use1416"
           transform="rotate(90,256,256)"
           style="fill:#06f;stroke-width:1.33789" />
        <use
           x="0"
           y="0"
           xlink:href="#rect1317"
           inkscape:transform-center-x="99.299942"
           inkscape:transform-center-y="99.221132"
           id="use1418"
           transform="rotate(180,256,256)"
           style="fill:#06f;stroke-width:1.33789" />
        <use
           x="0"
           y="0"
           xlink:href="#rect1317"
           inkscape:transform-center-x="99.221134"
           inkscape:transform-center-y="-99.299949"
           id="use1420"
           transform="rotate(-90,256,256)"
           style="fill:#06f;stroke-width:1.33789" />
        <use
           x="0"
           y="0"
           xlink:href="#rect1307"
           inkscape:transform-center-x="-154.03759"
           inkscape:transform-center-y="-3.8150024e-06"
           id="use1311"
           transform="rotate(90,256,256.00001)"
           style="fill:#06f;stroke-width:1.33789" />
        <path
           id="path873"
           style="fill:#06f;stroke:white;stroke-width:3.53983;stroke-linecap:round;stroke-dasharray:none"
           d="M 256.00009,103.28554 A 152.71466,152.71466 0 0 0 103.28539,256.00025 A 152.71466,152.71466 0 0 0 256.00009,408.71444 A 152.71466,152.71466 0 0 0 408.7148,256.00025 A 152.71466,152.71466 0 0 0 256.00009,103.28554 Z M 256.00009,138.32939 A 117.67079,117.67079 0 0 1 373.67095,256.00025 A 117.67079,117.67079 0 0 1 256.00009,373.67058 A 117.67079,117.67079 0 0 1 138.32924,256.00025 A 117.67079,117.67079 0 0 1 256.00009,138.32939 Z" />
        <g
           id="g1440"
           style="fill:#06f;stroke-width:1.33789">
          <g
             id="g1049"
             inkscape:transform-center-x="-10.596328"
             inkscape:transform-center-y="-58.835398"
             style="fill:#06f;stroke-width:1.06195;stroke-dasharray:none">
            <path
               id="use1976"
               style="fill:#06f;stroke:white;stroke-width:1.76991;stroke-linecap:round;stroke-dasharray:none"
               d="M 255.99999,138.32921 V 209.06412 L 273.96157,212.6369 L 307.58633,150.23969 C 291.60814,141.52873 275.14059,138.37318 255.99999,138.32921 Z"
               sodipodi:nodetypes="ccccc" />
            <path
               style="fill:#06f;stroke:white;stroke-width:1.06195;stroke-linecap:round;stroke-dasharray:none"
               d="M 260.8779,178.03983 L 283.73146,183.23206"
               id="path1045"
               sodipodi:nodetypes="cc" />
          </g>
          <use
             x="0"
             y="0"
             xlink:href="#g1049"
             inkscape:transform-center-x="-29.417692"
             inkscape:transform-center-y="-50.952955"
             id="use1075"
             transform="rotate(30,256,256)"
             style="fill:#06f;stroke-width:1.33789" />
          <use
             x="0"
             y="0"
             xlink:href="#g1049"
             inkscape:transform-center-x="-50.952945"
             inkscape:transform-center-y="-29.417709"
             id="use1077"
             transform="rotate(60,256,256)"
             style="fill:#06f;stroke-width:1.33789" />
          <use
             x="0"
             y="0"
             xlink:href="#g1049"
             inkscape:transform-center-x="-58.835398"
             inkscape:transform-center-y="10.596322"
             id="use1079"
             transform="rotate(90,256,256)"
             style="fill:#06f;stroke-width:1.33789" />
          <use
             x="0"
             y="0"
             xlink:href="#g1049"
             inkscape:transform-center-x="-50.952955"
             inkscape:transform-center-y="29.417686"
             id="use1081"
             transform="rotate(120,256,256)"
             style="fill:#06f;stroke-width:1.33789" />
          <use
             x="0"
             y="0"
             xlink:href="#g1049"
             inkscape:transform-center-x="-29.417709"
             inkscape:transform-center-y="50.952938"
             id="use1083"
             transform="rotate(150,256,256)"
             style="fill:#06f;stroke-width:1.33789" />
          <use
             x="0"
             y="0"
             xlink:href="#g1049"
             inkscape:transform-center-x="10.596322"
             inkscape:transform-center-y="58.835392"
             id="use1085"
             transform="rotate(180,256,256)"
             style="fill:#06f;stroke-width:1.33789" />
          <use
             x="0"
             y="0"
             xlink:href="#g1049"
             inkscape:transform-center-x="29.417686"
             inkscape:transform-center-y="50.952948"
             id="use1087"
             transform="rotate(-150,256,256)"
             style="fill:#06f;stroke-width:1.33789" />
          <use
             x="0"
             y="0"
             xlink:href="#g1049"
             inkscape:transform-center-x="50.952939"
             inkscape:transform-center-y="29.417703"
             id="use1089"
             transform="rotate(-120,256,256)"
             style="fill:#06f;stroke-width:1.33789" />
          <use
             x="0"
             y="0"
             xlink:href="#g1049"
             inkscape:transform-center-x="58.835392"
             inkscape:transform-center-y="-10.596328"
             id="use1091"
             transform="rotate(-90,256,256)"
             style="fill:#06f;stroke-width:1.33789" />
          <use
             x="0"
             y="0"
             xlink:href="#g1049"
             inkscape:transform-center-x="50.952943"
             inkscape:transform-center-y="-29.417683"
             id="use1093"
             transform="rotate(-60,256.00001,256)"
             style="fill:#06f;stroke-width:1.33789" />
          <use
             x="0"
             y="0"
             xlink:href="#g1049"
             inkscape:transform-center-x="29.417702"
             inkscape:transform-center-y="-50.95294"
             id="use1095"
             transform="rotate(-30,256.00001,256)"
             style="fill:#06f;stroke-width:1.33789" />
        </g>
      </g>
    </g>
    <g
       id="g6302"
       transform="matrix(0.59711646,-0.59711646,0.59711646,0.59711646,-163.89946,370.61428)">
      <path
         id="path5582"
         style="fill:#04a;fill-opacity:1;stroke:#04a;stroke-width:3.53983;stroke-linecap:round;filter:url(#filter5591)"
         d="M 254.8457,188.75977 C 234.11005,189.04593 213.74514,199.56297 201.65055,216.4331 C 197.24983,222.51541 193.82094,229.3125 191.66406,236.50781 C 179.76172,236.50781 167.85938,236.50781 155.95703,236.50781 C 155.95703,249.5026 155.95703,262.4974 155.95703,275.49219 C 167.86133,275.49219 179.76562,275.49219 191.66992,275.49219 C 197.59095,295.42486 213.35594,312.17721 232.9602,319.1595 C 250.28386,325.52289 270.26309,324.38684 286.65362,315.84762 C 301.44776,308.27822 313.30873,295.07181 319.01832,279.44141 C 319.50386,278.13458 319.95202,276.81362 320.34766,275.47656 C 332.24609,275.48167 344.14453,275.48758 356.04297,275.49219 C 356.04297,262.4974 356.04297,249.5026 356.04297,236.50781 C 344.14128,236.50781 332.23958,236.50781 320.33789,236.50781 C 314.37886,216.50552 298.53011,199.67479 278.80431,192.76993 C 271.14995,189.99383 262.9853,188.651 254.8457,188.75977 Z M 256.27539,215.56641 C 261.83044,215.59817 267.36213,216.83537 272.43555,219.08789 C 275.83892,220.60032 279.26653,222.71525 282.14666,225.16521 C 283.91282,226.65673 285.46448,228.21806 286.90346,229.94517 C 294.03915,238.3815 297.52229,249.82234 296.12929,260.80046 C 295.11593,269.55105 291.05978,278.09046 284.76683,284.39262 C 278.12474,291.1423 269.05697,295.45037 259.61469,296.2534 C 249.52559,297.17371 239.1193,294.16418 231.15672,287.87974 C 224.00731,282.32012 218.71774,274.20082 216.66312,265.3205 C 214.29636,255.34095 215.85476,244.46575 221.09893,235.63246 C 226.44346,226.3378 235.67897,219.41343 246.07668,216.82483 C 249.40504,215.97689 252.84107,215.55752 256.27539,215.56641 Z"
         transform="matrix(0.74747444,0,0,0.74741845,128.60372,216.52792)" />
      <g
         id="g3024"
         style="fill:#06f;fill-opacity:1;stroke:white;stroke-width:1.33789"
         transform="matrix(0.74747444,0,0,0.74741844,128.60373,216.52792)">
        <path
           id="rect3015"
           style="fill:#06f;fill-opacity:1;stroke:white;stroke-width:3.53983;stroke-linecap:round"
           d="M 314.80256,244.13757 H 348.41365 V 267.86244 H 314.80256"
           sodipodi:nodetypes="cccc" />
        <path
           id="use3018"
           style="fill:#06f;fill-opacity:1;stroke:white;stroke-width:3.53983;stroke-linecap:round"
           d="M 197.19744,267.86243 H 163.58635 V 244.13756 H 197.19744"
           sodipodi:nodetypes="cccc" />
        <path
           id="circle3013"
           style="fill:#06f;fill-opacity:1;stroke:white;stroke-width:3.53981;stroke-linecap:round;stroke-dasharray:none"
           d="M 256.00023,196.35868 A 59.641247,59.641247 0 0 0 196.35891,256 A 59.641247,59.641247 0 0 0 256.00023,315.64132 A 59.641247,59.641247 0 0 0 315.64104,256 A 59.641247,59.641247 0 0 0 256.00023,196.35868 Z M 256.00023,207.91456 A 48.085609,48.085609 0 0 1 304.08567,256 A 48.085609,48.085609 0 0 1 256.00023,304.08544 A 48.085609,48.085609 0 0 1 207.91428,256 A 48.085609,48.085609 0 0 1 256.00023,207.91456 Z" />
      </g>
    </g>
    <path
       style="fill:#06f;fill-opacity:1;stroke:white;stroke-width:2.23427;stroke-linecap:round;stroke-dasharray:2.23427, 8.93707;stroke-dashoffset:0"
       d="M 12.377878,167.29843 L 52.357903,207.27826 M 111.92221,266.84227 L 124.31189,279.23188 M 179.50151,334.42122 L 243.00227,397.92165 M 248.1221,403.04146 L 326.35397,481.27293"
       id="path5035"
       sodipodi:nodetypes="cccccccc" />
    <g
       id="g5588"
       style="fill:#06f;fill-opacity:1;stroke:white;stroke-width:1.15536"
       transform="matrix(0.86556137,0,0,0.86550092,214.08639,210.67203)" />
    <g
       id="g5680"
       style="fill:#06f;stroke-width:1.15536"
       transform="matrix(0.86556137,0,0,0.86550092,119.52825,114.48788)" />
    <g
       id="g6797"
       style="stroke-width:1.00013;stroke-dasharray:none"
       transform="matrix(0.75222992,0,0,0.75222992,31.807883,114.38652)">
      <path
         style="fill:none;fill-opacity:1;stroke:white;stroke-width:1.00013;stroke-linecap:round;stroke-dasharray:1.00013, 3.00038;stroke-dashoffset:0"
         d="M 385.59097,342.59101 L 441.9654,282.37158 V 225.85408"
         id="path6440"
         sodipodi:nodetypes="ccc" />
      <path
         id="rect6548"
         style="fill:none;stroke:white;stroke-width:1.00013;stroke-linecap:round;stroke-dasharray:1.00013, 3.00038;stroke-dashoffset:0"
         d="M 367.86906,339.43238 L 375.09579,332.20565 L 395.69921,352.80908 L 388.52845,359.97984"
         sodipodi:nodetypes="cccc" />
    </g>
    <g
       id="g6793"
       style="stroke-width:2.64583;stroke-dasharray:none"
       transform="matrix(1.4222024,0,0,1.4222024,-237.78372,-38.441651)">
      <path
         style="fill:none;fill-opacity:1;stroke:white;stroke-width:2.64583;stroke-linecap:round;stroke-dasharray:none;stroke-dashoffset:0"
         d="M 403.41957,117.94138 V 161.04467 H 423.78132 H 444.14307 V 117.94138"
         id="path6777"
         sodipodi:nodetypes="ccccc" />
      <path
         style="fill:none;fill-opacity:1;stroke:white;stroke-width:2.64583;stroke-linecap:round;stroke-dasharray:none;stroke-dashoffset:0"
         d="M 403.41957,204.14796 V 161.04467 H 423.78132 H 444.14307 V 204.14796"
         id="path6783"
         sodipodi:nodetypes="ccccc"
         inkscape:transform-center-y="22.213105" />
      <path
         style="fill:none;fill-opacity:1;stroke:white;stroke-width:2.64583;stroke-linecap:round;stroke-dasharray:none;stroke-dashoffset:0"
         d="M 423.78132,204.14796 V 161.04467 H 444.14307 H 464.50482 V 204.14796"
         id="path6785"
         sodipodi:nodetypes="ccccc"
         inkscape:transform-center-y="22.213105" />
      <path
         style="fill:none;fill-opacity:1;stroke:white;stroke-width:2.64583;stroke-linecap:round;stroke-dasharray:none;stroke-dashoffset:0"
         d="M 423.78132,161.04467 V 117.94138"
         id="path6787" />
    </g>
    <text
       xml:space="preserve"
       style="font-style:normal;font-variant:normal;font-weight:bold;font-stretch:normal;font-size:23.4965px;line-height:1.1;font-family:'MesloLGS NF';-inkscape-font-specification:'MesloLGS NF Bold';text-align:start;writing-mode:lr-tb;text-anchor:start;fill:none;fill-opacity:1;stroke:white;stroke-width:0.52916667;stroke-linecap:round;stroke-dasharray:none;stroke-dashoffset:0"
       x="15.712727"
       y="-456.41385"
       id="text6921"
       transform="matrix(0,1.0011568,-0.99884453,0,0,0)"><tspan
         sodipodi:role="line"
         id="tspan6919"
         style="font-size:23.4965px;stroke-width:0.52916667;stroke-dasharray:none"
         x="15.712727"
         y="-456.41385">C++ logging header for debugging</tspan></text>
    <text
       xml:space="preserve"
       style="font-style:normal;font-variant:normal;font-weight:bold;font-stretch:normal;font-size:9.87777778px;line-height:1.1;font-family:'MesloLGS NF';-inkscape-font-specification:'MesloLGS NF, Bold';text-align:start;writing-mode:lr-tb;text-anchor:start;fill:white;fill-opacity:1;stroke:none;stroke-width:0.752583;stroke-linecap:round;stroke-dasharray:none;stroke-dashoffset:0;font-variant-ligatures:normal;font-variant-caps:normal;font-variant-numeric:normal;font-variant-east-asian:normal"
       x="-124.40454"
       y="338.40585"
       id="text7404"
       transform="rotate(-90)"><tspan
         sodipodi:role="line"
         id="tspan7402"
         style="stroke-width:0.752583;-inkscape-font-specification:'MesloLGS NF, Bold';font-family:'MesloLGS NF';font-weight:bold;font-style:normal;font-stretch:normal;font-variant:normal;font-size:9.87777778px;font-variant-ligatures:normal;font-variant-caps:normal;font-variant-numeric:normal;font-variant-east-asian:normal"
         x="-124.40454"
         y="338.40585">Critical</tspan></text>
    <text
       xml:space="preserve"
       style="font-style:normal;font-variant:normal;font-weight:bold;font-stretch:normal;font-size:9.87777778px;line-height:1.1;font-family:'MesloLGS NF';-inkscape-font-specification:'MesloLGS NF, Bold';text-align:start;writing-mode:lr-tb;text-anchor:start;fill:white;fill-opacity:1;stroke:none;stroke-width:0.752583;stroke-linecap:round;stroke-dasharray:none;stroke-dashoffset:0;font-variant-ligatures:normal;font-variant-caps:normal;font-variant-numeric:normal;font-variant-east-asian:normal"
       x="-124.28407"
       y="367.33127"
       id="text7408"
       transform="rotate(-90)"><tspan
         sodipodi:role="line"
         id="tspan7406"
         style="stroke-width:0.752583;-inkscape-font-specification:'MesloLGS NF, Bold';font-family:'MesloLGS NF';font-weight:bold;font-style:normal;font-stretch:normal;font-variant:normal;font-size:9.87777778px;font-variant-ligatures:normal;font-variant-caps:normal;font-variant-numeric:normal;font-variant-east-asian:normal"
         x="-124.28407"
         y="367.33127">Error</tspan></text>
    <text
       xml:space="preserve"
       style="font-style:normal;font-variant:normal;font-weight:bold;font-stretch:normal;font-size:9.87777778px;line-height:1.1;font-family:'MesloLGS NF';-inkscape-font-specification:'MesloLGS NF, Bold';text-align:start;writing-mode:lr-tb;text-anchor:start;fill:white;fill-opacity:1;stroke:none;stroke-width:0.752583;stroke-linecap:round;stroke-dasharray:none;stroke-dashoffset:0;font-variant-ligatures:normal;font-variant-caps:normal;font-variant-numeric:normal;font-variant-east-asian:normal"
       x="-122.96565"
       y="397.08142"
       id="text7412"
       transform="rotate(-90)"><tspan
         sodipodi:role="line"
         id="tspan7410"
         style="stroke-width:0.752583;-inkscape-font-specification:'MesloLGS NF, Bold';font-family:'MesloLGS NF';font-weight:bold;font-style:normal;font-stretch:normal;font-variant:normal;font-size:9.87777778px;font-variant-ligatures:normal;font-variant-caps:normal;font-variant-numeric:normal;font-variant-east-asian:normal"
         x="-122.96565"
         y="397.08142">Warning</tspan></text>
    <text
       xml:space="preserve"
       style="font-style:normal;font-variant:normal;font-weight:bold;font-stretch:normal;font-size:9.87777778px;line-height:1.1;font-family:'MesloLGS NF';-inkscape-font-specification:'MesloLGS NF, Bold';text-align:start;writing-mode:lr-tb;text-anchor:start;fill:white;fill-opacity:1;stroke:none;stroke-width:0.752583;stroke-linecap:round;stroke-dasharray:none;stroke-dashoffset:0;font-variant-ligatures:normal;font-variant-caps:normal;font-variant-numeric:normal;font-variant-east-asian:normal"
       x="-257.71439"
       y="337.55362"
       id="text7416"
       transform="rotate(-90)"><tspan
         sodipodi:role="line"
         id="tspan7414"
         style="text-align:end;text-anchor:end;stroke-width:0.752583;-inkscape-font-specification:'MesloLGS NF, Bold';font-family:'MesloLGS NF';font-weight:bold;font-style:normal;font-stretch:normal;font-variant:normal;font-size:9.87777778px;font-variant-ligatures:normal;font-variant-caps:normal;font-variant-numeric:normal;font-variant-east-asian:normal"
         x="-257.71439"
         y="337.55362">Progress</tspan></text>
    <text
       xml:space="preserve"
       style="font-style:normal;font-variant:normal;font-weight:bold;font-stretch:normal;font-size:9.87777778px;line-height:1.1;font-family:'MesloLGS NF';-inkscape-font-specification:'MesloLGS NF, Bold';text-align:end;writing-mode:lr-tb;text-anchor:end;fill:white;fill-opacity:1;stroke:none;stroke-width:0.752583;stroke-linecap:round;stroke-dasharray:none;stroke-dashoffset:0;font-variant-ligatures:normal;font-variant-caps:normal;font-variant-numeric:normal;font-variant-east-asian:normal"
       x="-257.99564"
       y="366.88141"
       id="text7420"
       transform="rotate(-90)"><tspan
         sodipodi:role="line"
         id="tspan7418"
         style="text-align:end;text-anchor:end;stroke-width:0.752583;-inkscape-font-specification:'MesloLGS NF, Bold';font-family:'MesloLGS NF';font-weight:bold;font-style:normal;font-stretch:normal;font-variant:normal;font-size:9.87777778px;font-variant-ligatures:normal;font-variant-caps:normal;font-variant-numeric:normal;font-variant-east-asian:normal"
         x="-257.99564"
         y="366.88141">Note</tspan></text>
    <text
       xml:space="preserve"
       style="font-style:normal;font-variant:normal;font-weight:bold;font-stretch:normal;font-size:9.87777778px;line-height:1.1;font-family:'MesloLGS NF';-inkscape-font-specification:'MesloLGS NF, Bold';text-align:start;writing-mode:lr-tb;text-anchor:start;fill:white;fill-opacity:1;stroke:none;stroke-width:0.752583;stroke-linecap:round;stroke-dasharray:none;stroke-dashoffset:0;font-variant-ligatures:normal;font-variant-caps:normal;font-variant-numeric:normal;font-variant-east-asian:normal"
       x="-257.9476"
       y="395.76114"
       id="text7424"
       transform="rotate(-90)"><tspan
         sodipodi:role="line"
         id="tspan7422"
         style="text-align:end;text-anchor:end;stroke-width:0.752583;-inkscape-font-specification:'MesloLGS NF, Bold';font-family:'MesloLGS NF';font-weight:bold;font-style:normal;font-stretch:normal;font-variant:normal;font-size:9.87777778px;font-variant-ligatures:normal;font-variant-caps:normal;font-variant-numeric:normal;font-variant-east-asian:normal"
         x="-257.9476"
         y="395.76114">Info</tspan></text>
    <text
       xml:space="preserve"
       style="font-style:normal;font-variant:normal;font-weight:bold;font-stretch:normal;font-size:9.87777778px;line-height:1.1;font-family:'MesloLGS NF';-inkscape-font-specification:'MesloLGS NF, Bold';text-align:start;writing-mode:lr-tb;text-anchor:start;fill:white;fill-opacity:1;stroke:none;stroke-width:0.752583;stroke-linecap:round;stroke-dasharray:none;stroke-dashoffset:0;font-variant-ligatures:normal;font-variant-caps:normal;font-variant-numeric:normal;font-variant-east-asian:normal"
       x="-257.81384"
       y="424.35883"
       id="text7428"
       transform="rotate(-90)"><tspan
         sodipodi:role="line"
         id="tspan7426"
         style="text-align:end;text-anchor:end;stroke-width:0.752583;-inkscape-font-specification:'MesloLGS NF, Bold';font-family:'MesloLGS NF';font-weight:bold;font-style:normal;font-stretch:normal;font-variant:normal;font-size:9.87777778px;font-variant-ligatures:normal;font-variant-caps:normal;font-variant-numeric:normal;font-variant-east-asian:normal"
         x="-257.81384"
         y="424.35883">Debug</tspan></text>
    <text
       xml:space="preserve"
       style="font-style:normal;font-variant:normal;font-weight:bold;font-stretch:normal;font-size:23.4965px;line-height:1.1;font-family:'MesloLGS NF';-inkscape-font-specification:'MesloLGS NF Bold';text-align:start;writing-mode:lr-tb;text-anchor:start;fill:none;fill-opacity:1;stroke:white;stroke-width:0.529167;stroke-linecap:round;stroke-dasharray:none;stroke-dashoffset:0"
       x="26.512325"
       y="457.33154"
       id="text7645"
       transform="scale(1.0011568,0.99884453)"><tspan
         sodipodi:role="line"
         id="tspan7643"
         style="font-size:23.4965px;stroke-width:0.529167;stroke-dasharray:none"
         x="26.512325"
         y="457.33154">v0.16</tspan></text>
    <path
       style="fill:#00112b;fill-opacity:1;stroke:none;stroke-width:0.529167;stroke-linecap:round;stroke-dasharray:none;stroke-dashoffset:0;filter:url(#filter8261)"
       d="M 1.5874998,23.875894 L 24.102351,1.5875025 V 23.517416 Z"
       id="path8259" />
    <path
       style="fill:#06f;fill-opacity:1;stroke:none;stroke-width:0.529167;stroke-linecap:round;stroke-dasharray:none;stroke-dashoffset:0"
       d="M 0,22.288396 L 22.514853,2.7264555e-6 V 21.929918 Z"
       id="path7912" />
  </g>
  <metadata
     id="metadata8428">
    <rdf:RDF>
      <cc:Work
         rdf:about="">
        <dc:title>Clutchlog logo</dc:title>
        <dc:date>2022-08-29</dc:date>
        <dc:creator>
          <cc:Agent>
            <dc:title>nojhan</dc:title>
          </cc:Agent>
        </dc:creator>
      </cc:Work>
    </rdf:RDF>
  </metadata>
</svg>
