<?xml version="1.0" encoding="UTF-8" standalone="no"?>
<!DOCTYPE svg PUBLIC "-//W3C//DTD SVG 1.1//EN"
 "http://www.w3.org/Graphics/SVG/1.1/DTD/svg11.dtd">
<!-- Generated by graphviz version 2.43.0 (0)
 -->
<!-- Title: Graphical Class Hierarchy Pages: 1 -->
<svg width="426pt" height="142pt"
 viewBox="0.00 0.00 426.00 142.00" xmlns="http://www.w3.org/2000/svg" xmlns:xlink="http://www.w3.org/1999/xlink">
<g id="graph0" class="graph" transform="scale(1 1) rotate(0) translate(4 138)">
<title>Graphical Class Hierarchy</title>
<polygon fill="white" stroke="transparent" points="-4,4 -4,-138 422,-138 422,4 -4,4"/>
<!-- Node0 -->
<g id="node1" class="node">
<title>Node0</title>
<g id="a_node1"><a xlink:href="structclutchlog_1_1fmt_1_1color.html" target="_top" xlink:title="Interface class for colors representation.">
<polygon fill="white" stroke="black" points="0,-57.5 0,-76.5 103,-76.5 103,-57.5 0,-57.5"/>
<text text-anchor="middle" x="51.5" y="-64.5" font-family="Helvetica,sans-Serif" font-size="10.00">clutchlog::fmt::color</text>
</a>
</g>
</g>
<!-- Node1 -->
<g id="node2" class="node">
<title>Node1</title>
<g id="a_node2"><a xlink:href="structclutchlog_1_1fmt_1_1color__16_m.html" target="_top" xlink:title="Abstract base class for 16M colors objects (24&#45;bits ANSI).">
<polygon fill="white" stroke="black" points="139,-76.5 139,-95.5 266,-95.5 266,-76.5 139,-76.5"/>
<text text-anchor="middle" x="202.5" y="-83.5" font-family="Helvetica,sans-Serif" font-size="10.00">clutchlog::fmt::color_16M</text>
</a>
</g>
</g>
<!-- Node0&#45;&gt;Node1 -->
<g id="edge1" class="edge">
<title>Node0&#45;&gt;Node1</title>
<path fill="none" stroke="midnightblue" d="M113.41,-74.77C121.76,-75.83 130.35,-76.93 138.74,-78"/>
<polygon fill="midnightblue" stroke="midnightblue" points="113.72,-71.28 103.36,-73.49 112.84,-78.22 113.72,-71.28"/>
</g>
<!-- Node4 -->
<g id="node5" class="node">
<title>Node4</title>
<g id="a_node5"><a xlink:href="structclutchlog_1_1fmt_1_1color__256.html" target="_top" xlink:title="Abstract base class for 256 colors objects (8&#45;bits ANSI).">
<polygon fill="white" stroke="black" points="140.5,-38.5 140.5,-57.5 264.5,-57.5 264.5,-38.5 140.5,-38.5"/>
<text text-anchor="middle" x="202.5" y="-45.5" font-family="Helvetica,sans-Serif" font-size="10.00">clutchlog::fmt::color_256</text>
</a>
</g>
</g>
<!-- Node0&#45;&gt;Node4 -->
<g id="edge4" class="edge">
<title>Node0&#45;&gt;Node4</title>
<path fill="none" stroke="midnightblue" d="M113.28,-59.25C122.2,-58.11 131.39,-56.94 140.31,-55.8"/>
<polygon fill="midnightblue" stroke="midnightblue" points="112.84,-55.78 103.36,-60.51 113.72,-62.72 112.84,-55.78"/>
</g>
<!-- Node2 -->
<g id="node3" class="node">
<title>Node2</title>
<g id="a_node3"><a xlink:href="structclutchlog_1_1fmt_1_1bg__16_m.html" target="_top" xlink:title="background in 256&#45;colors mode.">
<polygon fill="white" stroke="black" points="302,-114.5 302,-133.5 418,-133.5 418,-114.5 302,-114.5"/>
<text text-anchor="middle" x="360" y="-121.5" font-family="Helvetica,sans-Serif" font-size="10.00">clutchlog::fmt::bg_16M</text>
</a>
</g>
</g>
<!-- Node1&#45;&gt;Node2 -->
<g id="edge2" class="edge">
<title>Node1&#45;&gt;Node2</title>
<path fill="none" stroke="midnightblue" d="M252.47,-97.97C274.27,-103.29 299.57,-109.48 320.04,-114.48"/>
<polygon fill="midnightblue" stroke="midnightblue" points="253.28,-94.56 242.74,-95.59 251.62,-101.36 253.28,-94.56"/>
</g>
<!-- Node3 -->
<g id="node4" class="node">
<title>Node3</title>
<g id="a_node4"><a xlink:href="structclutchlog_1_1fmt_1_1fg__16_m.html" target="_top" xlink:title="Foreground in 256&#45;colors mode.">
<polygon fill="white" stroke="black" points="303,-76.5 303,-95.5 417,-95.5 417,-76.5 303,-76.5"/>
<text text-anchor="middle" x="360" y="-83.5" font-family="Helvetica,sans-Serif" font-size="10.00">clutchlog::fmt::fg_16M</text>
</a>
</g>
</g>
<!-- Node1&#45;&gt;Node3 -->
<g id="edge3" class="edge">
<title>Node1&#45;&gt;Node3</title>
<path fill="none" stroke="midnightblue" d="M276.34,-86C285.3,-86 294.34,-86 302.98,-86"/>
<polygon fill="midnightblue" stroke="midnightblue" points="276.3,-82.5 266.3,-86 276.3,-89.5 276.3,-82.5"/>
</g>
<!-- Node5 -->
<g id="node6" class="node">
<title>Node5</title>
<g id="a_node6"><a xlink:href="structclutchlog_1_1fmt_1_1bg__256.html" target="_top" xlink:title="Background in 256&#45;colors mode.">
<polygon fill="white" stroke="black" points="303.5,-38.5 303.5,-57.5 416.5,-57.5 416.5,-38.5 303.5,-38.5"/>
<text text-anchor="middle" x="360" y="-45.5" font-family="Helvetica,sans-Serif" font-size="10.00">clutchlog::fmt::bg_256</text>
</a>
</g>
</g>
<!-- Node4&#45;&gt;Node5 -->
<g id="edge5" class="edge">
<title>Node4&#45;&gt;Node5</title>
<path fill="none" stroke="midnightblue" d="M274.55,-48C284.26,-48 294.1,-48 303.48,-48"/>
<polygon fill="midnightblue" stroke="midnightblue" points="274.51,-44.5 264.51,-48 274.51,-51.5 274.51,-44.5"/>
</g>
<!-- Node6 -->
<g id="node7" class="node">
<title>Node6</title>
<g id="a_node7"><a xlink:href="structclutchlog_1_1fmt_1_1fg__256.html" target="_top" xlink:title="Foreground in 256&#45;colors mode.">
<polygon fill="white" stroke="black" points="304.5,-0.5 304.5,-19.5 415.5,-19.5 415.5,-0.5 304.5,-0.5"/>
<text text-anchor="middle" x="360" y="-7.5" font-family="Helvetica,sans-Serif" font-size="10.00">clutchlog::fmt::fg_256</text>
</a>
</g>
</g>
<!-- Node4&#45;&gt;Node6 -->
<g id="edge6" class="edge">
<title>Node4&#45;&gt;Node6</title>
<path fill="none" stroke="midnightblue" d="M252.47,-36.03C274.27,-30.71 299.57,-24.52 320.04,-19.52"/>
<polygon fill="midnightblue" stroke="midnightblue" points="251.62,-32.64 242.74,-38.41 253.28,-39.44 251.62,-32.64"/>
</g>
</g>
</svg>
