<?xml version="1.0" encoding="UTF-8" standalone="no"?>
<!DOCTYPE svg PUBLIC "-//W3C//DTD SVG 1.1//EN"
 "http://www.w3.org/Graphics/SVG/1.1/DTD/svg11.dtd">
<!-- Generated by graphviz version 2.43.0 (0)
 -->
<!-- Title: clutchlog::fmt::color_256 Pages: 1 -->
<svg width="250pt" height="140pt"
 viewBox="0.00 0.00 250.00 140.00" xmlns="http://www.w3.org/2000/svg" xmlns:xlink="http://www.w3.org/1999/xlink">
<g id="graph0" class="graph" transform="scale(1 1) rotate(0) translate(4 136)">
<title>clutchlog::fmt::color_256</title>
<polygon fill="white" stroke="transparent" points="-4,4 -4,-136 246,-136 246,4 -4,4"/>
<!-- Node1 -->
<g id="node1" class="node">
<title>Node1</title>
<g id="a_node1"><a xlink:title="Abstract base class for 256 colors objects (8&#45;bits ANSI).">
<polygon fill="#bfbfbf" stroke="black" points="59.5,-56.5 59.5,-75.5 183.5,-75.5 183.5,-56.5 59.5,-56.5"/>
<text text-anchor="middle" x="121.5" y="-63.5" font-family="Helvetica,sans-Serif" font-size="10.00">clutchlog::fmt::color_256</text>
</a>
</g>
</g>
<!-- Node3 -->
<g id="node3" class="node">
<title>Node3</title>
<g id="a_node3"><a xlink:href="structclutchlog_1_1fmt_1_1bg__256.html" target="_top" xlink:title="Background in 256&#45;colors mode.">
<polygon fill="white" stroke="black" points="0,-0.5 0,-19.5 113,-19.5 113,-0.5 0,-0.5"/>
<text text-anchor="middle" x="56.5" y="-7.5" font-family="Helvetica,sans-Serif" font-size="10.00">clutchlog::fmt::bg_256</text>
</a>
</g>
</g>
<!-- Node1&#45;&gt;Node3 -->
<g id="edge2" class="edge">
<title>Node1&#45;&gt;Node3</title>
<path fill="none" stroke="midnightblue" d="M103.23,-49.82C91.58,-40.15 76.9,-27.95 67.13,-19.83"/>
<polygon fill="midnightblue" stroke="midnightblue" points="101.13,-52.63 111.06,-56.32 105.6,-47.24 101.13,-52.63"/>
</g>
<!-- Node4 -->
<g id="node4" class="node">
<title>Node4</title>
<g id="a_node4"><a xlink:href="structclutchlog_1_1fmt_1_1fg__256.html" target="_top" xlink:title="Foreground in 256&#45;colors mode.">
<polygon fill="white" stroke="black" points="131,-0.5 131,-19.5 242,-19.5 242,-0.5 131,-0.5"/>
<text text-anchor="middle" x="186.5" y="-7.5" font-family="Helvetica,sans-Serif" font-size="10.00">clutchlog::fmt::fg_256</text>
</a>
</g>
</g>
<!-- Node1&#45;&gt;Node4 -->
<g id="edge3" class="edge">
<title>Node1&#45;&gt;Node4</title>
<path fill="none" stroke="midnightblue" d="M139.77,-49.82C151.42,-40.15 166.1,-27.95 175.87,-19.83"/>
<polygon fill="midnightblue" stroke="midnightblue" points="137.4,-47.24 131.94,-56.32 141.87,-52.63 137.4,-47.24"/>
</g>
<!-- Node2 -->
<g id="node2" class="node">
<title>Node2</title>
<g id="a_node2"><a xlink:href="structclutchlog_1_1fmt_1_1color.html" target="_top" xlink:title="Interface class for colors representation.">
<polygon fill="white" stroke="black" points="70,-112.5 70,-131.5 173,-131.5 173,-112.5 70,-112.5"/>
<text text-anchor="middle" x="121.5" y="-119.5" font-family="Helvetica,sans-Serif" font-size="10.00">clutchlog::fmt::color</text>
</a>
</g>
</g>
<!-- Node2&#45;&gt;Node1 -->
<g id="edge1" class="edge">
<title>Node2&#45;&gt;Node1</title>
<path fill="none" stroke="midnightblue" d="M121.5,-101.8C121.5,-92.91 121.5,-82.78 121.5,-75.75"/>
<polygon fill="midnightblue" stroke="midnightblue" points="118,-102.08 121.5,-112.08 125,-102.08 118,-102.08"/>
</g>
</g>
</svg>
