<?xml version="1.0" encoding="UTF-8" standalone="no"?>
<!DOCTYPE svg PUBLIC "-//W3C//DTD SVG 1.1//EN"
 "http://www.w3.org/Graphics/SVG/1.1/DTD/svg11.dtd">
<!-- Generated by graphviz version 2.43.0 (0)
 -->
<!-- Title: clutchlog::fmt::color_16M Pages: 1 -->
<svg width="256pt" height="140pt"
 viewBox="0.00 0.00 256.00 140.00" xmlns="http://www.w3.org/2000/svg" xmlns:xlink="http://www.w3.org/1999/xlink">
<g id="graph0" class="graph" transform="scale(1 1) rotate(0) translate(4 136)">
<title>clutchlog::fmt::color_16M</title>
<polygon fill="white" stroke="transparent" points="-4,4 -4,-136 252,-136 252,4 -4,4"/>
<!-- Node1 -->
<g id="node1" class="node">
<title>Node1</title>
<g id="a_node1"><a xlink:title="Abstract base class for 16M colors objects (24&#45;bits ANSI).">
<polygon fill="#bfbfbf" stroke="black" points="60.5,-56.5 60.5,-75.5 187.5,-75.5 187.5,-56.5 60.5,-56.5"/>
<text text-anchor="middle" x="124" y="-63.5" font-family="Helvetica,sans-Serif" font-size="10.00">clutchlog::fmt::color_16M</text>
</a>
</g>
</g>
<!-- Node3 -->
<g id="node3" class="node">
<title>Node3</title>
<g id="a_node3"><a xlink:href="structclutchlog_1_1fmt_1_1bg__16_m.html" target="_top" xlink:title="background in 256&#45;colors mode.">
<polygon fill="white" stroke="black" points="0,-0.5 0,-19.5 116,-19.5 116,-0.5 0,-0.5"/>
<text text-anchor="middle" x="58" y="-7.5" font-family="Helvetica,sans-Serif" font-size="10.00">clutchlog::fmt::bg_16M</text>
</a>
</g>
</g>
<!-- Node1&#45;&gt;Node3 -->
<g id="edge2" class="edge">
<title>Node1&#45;&gt;Node3</title>
<path fill="none" stroke="midnightblue" d="M105.45,-49.82C93.62,-40.15 78.71,-27.95 68.8,-19.83"/>
<polygon fill="midnightblue" stroke="midnightblue" points="103.44,-52.7 113.4,-56.32 107.87,-47.28 103.44,-52.7"/>
</g>
<!-- Node4 -->
<g id="node4" class="node">
<title>Node4</title>
<g id="a_node4"><a xlink:href="structclutchlog_1_1fmt_1_1fg__16_m.html" target="_top" xlink:title="Foreground in 256&#45;colors mode.">
<polygon fill="white" stroke="black" points="134,-0.5 134,-19.5 248,-19.5 248,-0.5 134,-0.5"/>
<text text-anchor="middle" x="191" y="-7.5" font-family="Helvetica,sans-Serif" font-size="10.00">clutchlog::fmt::fg_16M</text>
</a>
</g>
</g>
<!-- Node1&#45;&gt;Node4 -->
<g id="edge3" class="edge">
<title>Node1&#45;&gt;Node4</title>
<path fill="none" stroke="midnightblue" d="M142.83,-49.82C154.84,-40.15 169.97,-27.95 180.04,-19.83"/>
<polygon fill="midnightblue" stroke="midnightblue" points="140.35,-47.32 134.76,-56.32 144.75,-52.77 140.35,-47.32"/>
</g>
<!-- Node2 -->
<g id="node2" class="node">
<title>Node2</title>
<g id="a_node2"><a xlink:href="structclutchlog_1_1fmt_1_1color.html" target="_top" xlink:title="Interface class for colors representation.">
<polygon fill="white" stroke="black" points="72.5,-112.5 72.5,-131.5 175.5,-131.5 175.5,-112.5 72.5,-112.5"/>
<text text-anchor="middle" x="124" y="-119.5" font-family="Helvetica,sans-Serif" font-size="10.00">clutchlog::fmt::color</text>
</a>
</g>
</g>
<!-- Node2&#45;&gt;Node1 -->
<g id="edge1" class="edge">
<title>Node2&#45;&gt;Node1</title>
<path fill="none" stroke="midnightblue" d="M124,-101.8C124,-92.91 124,-82.78 124,-75.75"/>
<polygon fill="midnightblue" stroke="midnightblue" points="120.5,-102.08 124,-112.08 127.5,-102.08 120.5,-102.08"/>
</g>
</g>
</svg>
